{"glyphs":{"0":{"ha":818,"x_min":52,"x_max":766,"o":"m 52 511 q 145 897 52 755 q 410 1039 239 1039 q 672 897 578 1039 q 766 511 766 755 q 672 124 766 266 q 410 -18 578 -18 q 145 124 239 -18 q 52 511 52 266 m 192 511 q 247 214 192 322 q 410 106 302 106 q 571 214 516 106 q 627 511 627 322 q 571 808 627 700 q 410 916 516 916 q 288 865 338 916 q 215 725 239 814 q 192 511 192 635 z "},"1":{"ha":519,"x_min":28,"x_max":408,"o":"m 28 799 l 403 1039 l 408 1039 l 408 0 l 271 0 l 271 785 l 89 677 l 28 799 z "},"2":{"ha":736,"x_min":60,"x_max":690,"o":"m 60 772 q 163 971 85 904 q 367 1039 241 1039 q 591 954 505 1039 q 677 734 677 869 q 649 571 677 643 q 555 418 620 500 l 328 125 l 690 125 l 690 0 l 64 0 l 64 8 l 441 492 q 518 614 497 562 q 539 737 539 667 q 491 866 539 819 q 367 914 442 914 q 246 872 290 914 q 184 743 201 830 l 60 772 z "},"3":{"ha":728,"x_min":47,"x_max":699,"o":"m 47 235 l 172 268 q 246 148 198 189 q 378 107 294 107 q 510 157 460 107 q 561 292 561 208 q 505 420 561 370 q 363 471 450 471 l 252 471 l 252 591 l 366 591 q 481 633 433 591 q 529 750 529 675 q 483 870 529 825 q 366 914 437 914 q 184 768 231 914 l 64 819 q 176 980 100 922 q 367 1039 251 1039 q 583 958 500 1039 q 667 749 667 876 q 529 532 667 594 q 653 440 608 502 q 699 292 699 378 q 611 67 699 153 q 378 -18 523 -18 q 166 46 246 -18 q 47 235 86 111 z "},"4":{"ha":773,"x_min":9,"x_max":745,"o":"m 9 192 l 9 197 l 600 1029 l 607 1029 l 607 317 l 745 317 l 745 192 l 607 192 l 607 0 l 469 0 l 469 192 l 9 192 m 244 315 l 471 315 l 471 635 l 244 315 z "},"5":{"ha":747,"x_min":57,"x_max":707,"o":"m 57 203 l 175 258 q 375 107 224 107 q 514 164 460 107 q 568 310 568 222 q 515 453 568 398 q 376 507 462 507 q 196 444 275 507 l 109 486 l 109 1021 l 643 1021 l 643 896 l 248 896 l 248 602 q 382 632 307 632 q 616 544 526 632 q 707 304 707 456 q 668 141 707 214 q 555 25 629 68 q 383 -18 481 -18 q 57 203 140 -18 z "},"6":{"ha":760,"x_min":45,"x_max":714,"o":"m 45 317 q 117 530 45 441 l 437 1021 l 593 1021 l 353 653 q 378 654 361 654 q 546 611 469 654 q 669 490 623 568 q 714 317 714 412 q 669 144 714 221 q 546 24 623 66 q 378 -18 469 -18 q 211 24 287 -18 q 90 144 135 66 q 45 317 45 221 m 184 317 q 240 165 184 224 q 378 106 295 106 q 518 165 461 106 q 575 317 575 224 q 518 470 575 410 q 378 530 461 530 q 240 470 296 530 q 184 317 184 410 z "},"7":{"ha":747,"x_min":37,"x_max":728,"o":"m 37 895 l 37 1021 l 728 1021 l 728 1013 l 214 0 l 64 0 l 524 895 l 37 895 z "},"8":{"ha":760,"x_min":40,"x_max":711,"o":"m 40 289 q 86 439 40 372 q 208 541 132 507 q 117 632 151 573 q 83 764 83 690 q 168 961 83 883 q 375 1039 253 1039 q 582 961 497 1039 q 667 764 667 883 q 632 633 667 692 q 541 542 598 574 q 665 438 618 505 q 711 289 711 371 q 666 131 711 201 q 543 21 620 60 q 375 -18 466 -18 q 208 21 284 -18 q 85 131 131 60 q 40 289 40 201 m 180 286 q 237 156 180 208 q 375 104 293 104 q 514 156 457 104 q 571 286 571 208 q 514 418 571 365 q 375 471 457 471 q 237 418 293 471 q 180 286 180 365 m 212 758 q 259 640 212 687 q 375 593 307 593 q 491 640 444 593 q 538 758 538 687 q 490 871 538 825 q 375 917 443 917 q 260 871 307 917 q 212 758 212 825 z "},"9":{"ha":760,"x_min":45,"x_max":714,"o":"m 90 531 q 67 569 90 531 q 45 704 45 608 q 90 877 45 800 q 212 997 136 954 q 380 1039 289 1039 q 548 997 471 1039 q 669 877 624 954 q 714 704 714 800 q 653 505 714 591 l 322 0 l 165 0 l 406 367 l 380 367 q 212 410 289 367 q 90 531 136 453 m 184 704 q 241 550 184 610 q 380 490 297 490 q 519 550 463 490 q 575 704 575 610 q 519 856 575 796 q 380 916 463 916 q 241 856 297 916 q 184 704 184 796 z "}," ":{"ha":328,"x_min":0,"x_max":0,"o":""},"!":{"ha":363,"x_min":94,"x_max":272,"o":"m 94 71 q 119 134 94 109 q 182 160 144 160 q 246 134 220 160 q 272 71 272 109 q 246 7 272 32 q 182 -18 220 -18 q 119 7 144 -18 q 94 71 94 32 m 114 285 l 114 1021 l 250 1021 l 250 285 l 114 285 z "},"\"":{"ha":440,"x_min":69,"x_max":416,"o":"m 69 1042 l 197 1018 l 136 653 l 82 653 l 69 1042 m 289 1042 l 416 1018 l 355 653 l 301 653 l 289 1042 z "},"#":{"ha":981,"x_min":1,"x_max":957,"o":"m 1 269 l 1 382 l 205 382 l 250 631 l 66 631 l 66 742 l 268 742 l 318 1021 l 453 1021 l 404 742 l 637 742 l 688 1021 l 823 1021 l 774 742 l 957 742 l 957 631 l 754 631 l 710 382 l 892 382 l 892 269 l 692 269 l 644 0 l 509 0 l 555 269 l 322 269 l 275 0 l 138 0 l 186 269 l 1 269 m 342 382 l 575 382 l 619 631 l 385 631 l 342 382 z "},"$":{"ha":806,"x_min":36,"x_max":774,"o":"m 36 113 l 115 231 q 250 144 170 176 q 414 113 330 113 q 572 157 512 113 q 632 281 632 201 q 578 385 632 347 q 393 450 524 423 q 136 558 210 490 q 61 743 61 627 q 141 948 61 868 q 357 1038 221 1027 l 357 1207 l 472 1207 l 472 1035 q 728 930 621 1015 l 653 814 q 395 908 540 908 q 255 868 307 908 q 203 749 203 828 q 252 648 203 682 q 433 587 302 614 q 696 479 618 547 q 774 292 774 410 q 692 84 774 166 q 472 -14 611 2 l 472 -179 l 357 -179 l 357 -16 q 36 113 167 -1 z "},"%":{"ha":1211,"x_min":40,"x_max":1173,"o":"m 40 781 q 111 966 40 892 q 289 1039 181 1039 q 466 965 395 1039 q 536 781 536 892 q 466 598 536 671 q 289 526 395 526 q 110 598 180 526 q 40 781 40 670 m 146 781 q 186 670 146 714 q 289 627 227 627 q 391 670 351 627 q 431 781 431 714 q 391 893 431 849 q 289 937 351 937 q 186 893 227 937 q 146 781 146 849 m 205 0 l 871 1021 l 1006 1021 l 340 0 l 205 0 m 745 55 q 710 90 745 55 q 675 237 675 126 q 745 421 675 349 q 924 494 815 494 q 1102 421 1031 494 q 1173 237 1173 349 q 1102 55 1173 126 q 924 -17 1031 -17 q 745 55 815 -17 m 781 237 q 821 127 781 171 q 924 83 861 83 q 1026 127 985 83 q 1067 237 1067 171 q 1026 350 1067 305 q 924 395 985 395 q 821 350 861 395 q 781 237 781 305 z "},"&":{"ha":952,"x_min":40,"x_max":958,"o":"m 40 268 q 54 362 40 321 q 99 441 68 404 q 168 508 130 478 q 267 576 205 538 q 186 694 215 637 q 158 815 158 751 q 224 977 158 916 q 400 1039 290 1039 q 576 978 510 1039 q 643 818 643 917 q 637 769 643 792 q 623 727 631 745 q 599 689 615 708 q 570 656 583 669 q 533 625 556 642 q 493 596 509 607 q 449 567 477 585 l 471 542 l 665 325 l 791 479 l 953 479 l 751 229 l 958 0 l 782 0 l 667 129 q 525 24 600 61 q 355 -14 450 -14 q 234 5 291 -14 q 134 60 177 24 q 65 149 90 95 q 40 268 40 203 m 179 277 q 231 153 179 199 q 363 107 283 107 q 582 225 474 107 l 378 456 q 366 468 372 461 q 353 483 360 475 q 342 496 346 491 q 272 446 298 467 q 223 398 246 425 q 189 342 199 372 q 179 277 179 313 m 288 810 q 309 728 288 767 q 372 644 331 689 q 483 728 451 693 q 514 812 514 763 q 484 895 514 865 q 401 925 453 925 q 319 895 350 925 q 288 810 288 864 z "},"'":{"ha":220,"x_min":69,"x_max":197,"o":"m 69 1042 l 197 1018 l 136 653 l 82 653 l 69 1042 z "},"(":{"ha":404,"x_min":65,"x_max":376,"o":"m 65 401 q 83 586 65 498 q 134 744 101 674 q 199 866 166 814 q 273 968 231 917 l 376 893 q 310 803 338 847 q 253 699 281 760 q 210 563 224 638 q 195 401 195 488 q 210 240 195 315 q 253 104 224 165 q 310 0 281 43 q 376 -90 338 -44 l 273 -165 q 65 401 65 85 z "},")":{"ha":404,"x_min":28,"x_max":339,"o":"m 28 -90 q 82 -21 58 -54 q 130 60 105 13 q 172 156 155 107 q 199 269 189 205 q 210 401 210 332 q 199 534 210 471 q 172 647 189 598 q 130 743 155 696 q 82 824 105 790 q 28 893 58 857 l 131 968 q 206 866 173 918 q 271 744 239 814 q 321 586 303 674 q 339 401 339 498 q 131 -165 339 81 l 28 -90 z "},"*":{"ha":572,"x_min":37,"x_max":536,"o":"m 37 804 l 68 897 l 243 835 l 237 1019 l 336 1019 l 330 835 l 504 897 l 536 804 l 358 751 l 471 606 l 390 549 l 288 694 l 183 549 l 104 606 l 216 751 l 37 804 z "},"+":{"ha":675,"x_min":54,"x_max":619,"o":"m 54 424 l 54 549 l 273 549 l 273 768 l 399 768 l 399 549 l 619 549 l 619 424 l 399 424 l 399 203 l 273 203 l 273 424 l 54 424 z "},",":{"ha":256,"x_min":69,"x_max":200,"o":"m 69 170 q 104 176 87 176 q 173 149 146 176 q 200 79 200 121 q 183 24 200 52 l 75 -197 l 69 -197 l 69 170 z "},"-":{"ha":606,"x_min":56,"x_max":550,"o":"m 56 296 l 56 422 l 550 422 l 550 296 l 56 296 z "},".":{"ha":297,"x_min":53,"x_max":244,"o":"m 80 14 q 66 27 80 14 q 53 82 53 41 q 80 151 53 123 q 149 178 107 178 q 217 151 191 178 q 244 82 244 125 q 217 14 244 41 q 149 -14 190 -14 q 80 14 107 -14 z "},"/":{"ha":658,"x_min":7,"x_max":652,"o":"m 7 0 l 514 1019 l 652 1019 l 147 0 l 7 0 z "},":":{"ha":287,"x_min":53,"x_max":236,"o":"m 79 12 q 66 25 79 12 q 53 78 53 38 q 79 144 53 118 q 144 170 104 170 q 210 144 184 170 q 236 78 236 119 q 210 12 236 38 q 144 -14 184 -14 q 79 12 104 -14 m 79 553 q 66 566 79 553 q 53 619 53 579 q 79 685 53 659 q 144 711 105 711 q 210 685 184 711 q 236 619 236 659 q 210 553 236 579 q 144 528 184 528 q 79 553 104 528 z "},";":{"ha":287,"x_min":53,"x_max":236,"o":"m 79 553 q 66 566 79 553 q 53 619 53 579 q 79 685 53 659 q 144 711 105 711 q 210 685 184 711 q 236 619 236 659 q 210 553 236 579 q 144 528 184 528 q 79 553 104 528 m 79 164 q 114 170 94 170 q 183 142 156 170 q 210 74 210 115 q 193 17 210 46 l 85 -204 l 79 -204 l 79 164 z "},"<":{"ha":491,"x_min":28,"x_max":464,"o":"m 28 478 l 28 484 l 292 747 l 464 747 l 196 481 l 464 214 l 292 214 l 28 478 z "},"=":{"ha":675,"x_min":54,"x_max":619,"o":"m 54 257 l 54 382 l 619 382 l 619 257 l 54 257 m 54 587 l 54 714 l 619 714 l 619 587 l 54 587 z "},">":{"ha":491,"x_min":28,"x_max":464,"o":"m 28 214 l 294 481 l 28 747 l 200 747 l 464 484 l 464 478 l 200 214 l 28 214 z "},"?":{"ha":682,"x_min":28,"x_max":631,"o":"m 28 793 q 129 975 54 911 q 330 1039 205 1039 q 547 960 463 1039 q 631 760 631 880 q 618 671 631 711 q 585 603 605 631 q 540 552 565 576 q 491 507 515 528 q 446 465 466 486 q 413 415 426 444 q 400 353 400 387 l 400 285 l 262 285 l 262 370 q 275 447 262 412 q 307 507 288 482 q 351 554 327 532 q 399 598 375 576 q 443 641 423 619 q 475 693 463 663 q 488 758 488 723 q 443 872 488 831 q 329 914 398 914 q 163 770 191 914 l 28 793 m 243 71 q 268 134 243 109 q 332 160 293 160 q 396 134 370 160 q 421 71 421 109 q 396 7 421 32 q 332 -18 370 -18 q 268 7 293 -18 q 243 71 243 32 z "},"@":{"ha":1193,"x_min":43,"x_max":1150,"o":"m 43 336 q 113 619 43 494 q 310 814 183 744 q 596 885 436 885 q 884 817 758 885 q 1080 625 1010 748 q 1150 343 1150 501 q 1087 117 1150 202 q 913 32 1024 32 q 771 115 806 32 l 768 122 q 567 32 697 32 q 377 117 451 32 q 302 334 302 203 q 377 551 302 465 q 567 636 451 636 q 758 557 697 636 l 762 625 l 868 625 l 868 195 q 925 134 868 134 q 1010 191 979 134 q 1040 343 1040 249 q 985 569 1040 469 q 829 724 930 668 q 596 781 727 781 q 366 723 467 781 q 209 564 264 665 q 153 336 153 463 q 185 158 153 241 q 274 18 217 76 q 412 -74 331 -41 q 589 -107 494 -107 q 768 -74 686 -107 l 800 -172 q 589 -211 704 -211 q 368 -170 470 -211 q 195 -58 267 -130 q 83 116 123 14 q 43 336 43 218 m 468 479 q 443 451 468 479 q 419 334 419 424 q 468 189 419 243 q 593 134 516 134 q 753 224 690 134 l 753 444 q 593 534 688 534 q 468 479 516 534 z "},"A":{"ha":969,"x_min":12,"x_max":957,"o":"m 12 0 l 482 1039 l 488 1039 l 957 0 l 806 0 l 714 208 l 256 208 l 164 0 l 12 0 m 309 332 l 661 332 l 485 726 l 309 332 z "},"B":{"ha":920,"x_min":114,"x_max":878,"o":"m 114 0 l 114 1021 l 475 1021 q 711 949 629 1021 q 793 751 793 878 q 758 620 793 673 q 672 541 722 566 q 822 454 766 515 q 878 286 878 392 q 785 76 878 153 q 543 0 693 0 l 114 0 m 254 129 l 528 129 q 680 171 625 129 q 734 293 734 214 q 679 415 734 373 q 513 457 623 457 l 254 457 l 254 129 m 254 583 l 471 583 q 603 626 555 583 q 652 737 652 669 q 602 851 652 810 q 458 892 553 892 l 254 892 l 254 583 z "},"C":{"ha":944,"x_min":46,"x_max":926,"o":"m 46 510 q 112 781 46 661 q 294 970 177 902 q 559 1039 412 1039 q 921 890 774 1039 l 831 787 q 559 908 720 908 q 366 857 451 908 q 235 715 281 806 q 189 510 189 625 q 235 306 189 396 q 366 164 281 216 q 559 113 451 113 q 715 147 645 113 q 838 240 786 181 l 926 135 q 559 -18 786 -18 q 294 51 412 -18 q 112 240 177 119 q 46 510 46 360 z "},"D":{"ha":1017,"x_min":114,"x_max":971,"o":"m 114 0 l 114 1021 l 422 1021 q 826 887 682 1021 q 971 511 971 753 q 827 135 971 269 q 422 0 683 0 l 114 0 m 256 131 l 418 131 q 722 231 616 131 q 828 511 828 330 q 721 790 828 691 q 418 889 614 889 l 256 889 l 256 131 z "},"E":{"ha":801,"x_min":114,"x_max":757,"o":"m 114 0 l 114 1021 l 746 1021 l 746 890 l 256 890 l 256 581 l 686 581 l 686 454 l 256 454 l 256 131 l 757 131 l 757 0 l 114 0 z "},"F":{"ha":748,"x_min":114,"x_max":725,"o":"m 114 0 l 114 1021 l 725 1021 l 725 890 l 256 890 l 256 567 l 653 567 l 653 439 l 256 439 l 256 0 l 114 0 z "},"G":{"ha":1027,"x_min":46,"x_max":946,"o":"m 46 510 q 112 781 46 661 q 294 970 177 902 q 559 1039 412 1039 q 921 890 774 1039 l 831 787 q 559 908 720 908 q 366 857 451 908 q 235 715 281 806 q 189 510 189 625 q 237 306 189 396 q 373 164 285 216 q 574 113 461 113 q 804 184 706 113 l 804 414 l 545 414 l 545 538 l 946 538 l 946 115 q 574 -18 802 -18 q 301 51 422 -18 q 113 240 180 119 q 46 510 46 360 z "},"H":{"ha":1018,"x_min":114,"x_max":904,"o":"m 114 0 l 114 1021 l 256 1021 l 256 587 l 762 587 l 762 1021 l 904 1021 l 904 0 l 762 0 l 762 457 l 256 457 l 256 0 l 114 0 z "},"I":{"ha":369,"x_min":114,"x_max":256,"o":"m 114 0 l 114 1021 l 256 1021 l 256 0 l 114 0 z "},"J":{"ha":749,"x_min":28,"x_max":652,"o":"m 28 314 l 167 314 q 213 166 167 219 q 338 113 258 113 q 464 162 418 113 q 510 298 510 211 l 510 1021 l 652 1021 l 652 292 q 566 66 652 151 q 342 -18 480 -18 q 222 4 278 -18 q 122 67 165 26 q 53 172 79 108 q 28 314 28 235 z "},"K":{"ha":926,"x_min":114,"x_max":914,"o":"m 114 0 l 114 1021 l 256 1021 l 256 286 l 673 1021 l 840 1021 l 547 529 l 914 0 l 743 0 l 467 401 l 224 0 l 114 0 z "},"L":{"ha":755,"x_min":114,"x_max":742,"o":"m 114 0 l 114 1021 l 256 1021 l 256 126 l 742 126 l 742 0 l 114 0 z "},"M":{"ha":1212,"x_min":114,"x_max":1097,"o":"m 114 0 l 114 1039 l 119 1039 l 606 245 l 1092 1039 l 1097 1039 l 1097 0 l 956 0 l 956 562 l 611 -8 l 602 -8 l 256 562 l 256 0 l 114 0 z "},"N":{"ha":1012,"x_min":114,"x_max":899,"o":"m 114 0 l 114 1039 l 119 1039 l 757 336 l 757 1021 l 899 1021 l 899 -18 l 893 -18 l 256 686 l 256 0 l 114 0 z "},"O":{"ha":1119,"x_min":46,"x_max":1075,"o":"m 46 510 q 112 781 46 661 q 295 970 178 902 q 559 1039 413 1039 q 764 999 669 1039 q 928 889 860 959 q 1036 721 996 819 q 1075 510 1075 623 q 1008 238 1075 359 q 823 50 941 117 q 559 -18 705 -18 q 296 50 413 -18 q 112 238 178 117 q 46 510 46 359 m 189 510 q 293 225 189 337 q 559 113 397 113 q 826 225 722 113 q 930 510 930 337 q 826 795 930 683 q 559 908 722 908 q 368 857 453 908 q 236 715 283 806 q 189 510 189 624 z "},"P":{"ha":858,"x_min":114,"x_max":823,"o":"m 114 0 l 114 1021 l 468 1021 q 649 984 570 1021 q 776 873 729 947 q 823 697 823 799 q 777 523 823 596 q 650 412 730 449 q 468 375 570 375 l 256 375 l 256 0 l 114 0 m 256 500 l 456 500 q 619 551 559 500 q 679 697 679 602 q 619 844 679 792 q 456 896 559 896 l 256 896 l 256 500 z "},"Q":{"ha":1119,"x_min":46,"x_max":1121,"o":"m 46 510 q 112 781 46 661 q 295 970 178 902 q 559 1039 413 1039 q 764 999 669 1039 q 928 889 860 959 q 1036 721 996 819 q 1075 510 1075 623 q 1032 288 1075 389 q 911 114 989 186 l 1121 -127 l 947 -127 l 803 39 q 559 -18 691 -18 q 296 50 413 -18 q 112 238 178 117 q 46 510 46 359 m 189 510 q 293 225 189 337 q 559 113 397 113 q 713 143 641 113 l 555 326 l 656 412 l 821 220 q 902 348 873 273 q 930 510 930 422 q 826 795 930 683 q 559 908 722 908 q 368 857 453 908 q 236 715 283 806 q 189 510 189 624 z "},"R":{"ha":878,"x_min":111,"x_max":859,"o":"m 111 0 l 111 1021 l 450 1021 q 633 985 553 1021 q 762 876 714 949 q 810 704 810 803 q 754 521 810 596 q 603 411 699 446 l 859 0 l 692 0 l 453 387 l 253 387 l 253 0 l 111 0 m 253 513 l 437 513 q 605 562 544 513 q 667 704 667 611 q 605 846 667 795 q 437 896 543 896 l 253 896 l 253 513 z "},"S":{"ha":812,"x_min":36,"x_max":774,"o":"m 36 113 l 115 231 q 250 144 170 176 q 414 113 330 113 q 572 157 512 113 q 632 281 632 201 q 578 385 632 347 q 393 450 524 423 q 136 558 210 490 q 61 743 61 627 q 153 958 61 878 q 396 1039 245 1039 q 728 930 590 1039 l 653 814 q 395 908 540 908 q 255 868 307 908 q 203 749 203 828 q 252 648 203 682 q 433 587 302 614 q 696 479 618 547 q 774 292 774 410 q 675 67 774 152 q 410 -18 576 -18 q 36 113 186 -18 z "},"T":{"ha":901,"x_min":22,"x_max":879,"o":"m 22 895 l 22 1021 l 879 1021 l 879 895 l 521 895 l 521 0 l 379 0 l 379 895 l 22 895 z "},"U":{"ha":957,"x_min":102,"x_max":856,"o":"m 102 359 l 102 1021 l 243 1021 l 243 368 q 303 181 243 250 q 479 113 364 113 q 653 181 593 113 q 714 368 714 250 l 714 1021 l 856 1021 l 856 359 q 759 83 856 184 q 479 -18 662 -18 q 199 83 296 -18 q 102 359 102 184 z "},"V":{"ha":993,"x_min":14,"x_max":979,"o":"m 14 1021 l 168 1021 l 497 296 l 827 1021 l 979 1021 l 500 -17 l 494 -17 l 14 1021 z "},"W":{"ha":1358,"x_min":14,"x_max":1344,"o":"m 14 1021 l 171 1021 l 416 357 l 676 1021 l 682 1021 l 942 357 l 1187 1021 l 1344 1021 l 945 -17 l 939 -17 l 679 648 l 419 -17 l 414 -17 l 14 1021 z "},"X":{"ha":930,"x_min":20,"x_max":911,"o":"m 20 0 l 367 519 l 33 1021 l 199 1021 l 465 625 l 732 1021 l 897 1021 l 564 519 l 911 0 l 747 0 l 465 414 l 183 0 l 20 0 z "},"Y":{"ha":916,"x_min":9,"x_max":907,"o":"m 9 1019 l 175 1019 l 458 572 l 741 1019 l 907 1019 l 529 432 l 529 0 l 387 0 l 387 429 l 9 1019 z "},"Z":{"ha":805,"x_min":35,"x_max":768,"o":"m 35 0 l 35 5 l 532 892 l 57 892 l 57 1021 l 753 1021 l 753 1015 l 260 129 l 768 129 l 768 0 l 35 0 z "},"[":{"ha":427,"x_min":77,"x_max":393,"o":"m 77 -168 l 77 971 l 393 971 l 393 860 l 207 860 l 207 -57 l 393 -57 l 393 -168 l 77 -168 z "},"\\":{"ha":658,"x_min":7,"x_max":652,"o":"m 7 1019 l 146 1019 l 652 0 l 513 0 l 7 1019 z "},"]":{"ha":436,"x_min":35,"x_max":359,"o":"m 35 -57 l 228 -57 l 228 860 l 35 860 l 35 971 l 359 971 l 359 -168 l 35 -168 l 35 -57 z "},"^":{"ha":740,"x_min":28,"x_max":713,"o":"m 28 642 l 370 1055 l 713 642 l 587 642 l 370 904 l 154 642 l 28 642 z "},"_":{"ha":1111,"x_min":56,"x_max":1055,"o":"m 56 0 l 1055 0 l 1055 -125 l 56 -125 l 56 0 z "},"`":{"ha":410,"x_min":36,"x_max":389,"o":"m 36 982 l 197 982 l 389 800 l 252 800 l 36 982 z "},"a":{"ha":823,"x_min":41,"x_max":717,"o":"m 131 89 q 86 140 131 89 q 41 349 41 191 q 131 609 41 507 q 364 711 221 711 q 498 684 441 711 q 587 612 554 656 l 593 697 l 717 697 l 717 0 l 593 0 l 587 85 q 498 14 554 41 q 364 -14 441 -14 q 131 89 221 -14 m 238 523 q 208 490 238 523 q 179 349 179 456 q 238 174 179 241 q 389 107 296 107 q 581 225 509 107 l 581 472 q 389 590 509 590 q 238 523 296 590 z "},"b":{"ha":823,"x_min":107,"x_max":782,"o":"m 107 0 l 107 1055 l 243 1055 l 243 623 q 460 711 318 711 q 692 609 603 711 q 782 349 782 507 q 692 89 782 191 q 460 -14 603 -14 q 326 14 382 -14 q 236 85 269 41 l 231 0 l 107 0 m 243 225 q 435 107 315 107 q 586 174 527 107 q 644 349 644 241 q 586 523 644 456 q 435 590 527 590 q 243 472 315 590 l 243 225 z "},"c":{"ha":703,"x_min":41,"x_max":676,"o":"m 139 88 q 90 139 139 88 q 41 349 41 189 q 138 610 41 508 q 393 711 234 711 q 672 561 572 711 l 571 484 q 395 591 505 591 q 235 524 292 591 q 179 349 179 456 q 236 174 179 241 q 396 106 294 106 q 501 136 456 106 q 575 214 547 166 l 676 136 q 396 -14 577 -14 q 139 88 236 -14 z "},"d":{"ha":823,"x_min":41,"x_max":717,"o":"m 131 89 q 86 140 131 89 q 41 349 41 191 q 131 609 41 507 q 364 711 221 711 q 581 623 505 711 l 581 1055 l 717 1055 l 717 0 l 593 0 l 587 85 q 498 14 554 41 q 364 -14 441 -14 q 131 89 221 -14 m 238 523 q 208 490 238 523 q 179 349 179 456 q 238 174 179 241 q 389 107 296 107 q 581 225 509 107 l 581 472 q 389 590 509 590 q 238 523 296 590 z "},"e":{"ha":736,"x_min":41,"x_max":690,"o":"m 41 347 q 135 608 41 505 q 375 711 229 711 q 512 683 451 711 q 611 606 572 655 q 670 493 650 557 q 690 354 690 429 l 690 300 l 179 300 q 236 154 182 204 q 390 103 291 103 q 503 127 455 103 q 579 192 551 152 l 673 113 q 390 -14 571 -14 q 136 87 231 -14 q 41 347 41 188 m 179 411 l 555 411 q 505 545 552 495 q 375 595 458 595 q 238 545 291 595 q 179 411 184 494 z "},"f":{"ha":497,"x_min":25,"x_max":543,"o":"m 25 581 l 25 697 l 150 697 l 150 799 q 215 984 150 912 q 390 1055 280 1055 q 543 1007 484 1055 l 490 899 q 397 935 454 935 q 316 899 346 935 q 286 806 286 864 l 286 697 l 468 697 l 468 581 l 286 581 l 286 0 l 150 0 l 150 581 l 25 581 z "},"g":{"ha":825,"x_min":39,"x_max":717,"o":"m 39 -187 l 129 -98 q 358 -212 224 -212 q 520 -150 460 -212 q 581 16 581 -88 l 581 75 q 364 -14 505 -14 q 131 89 221 -14 q 41 349 41 191 q 131 609 41 507 q 364 711 221 711 q 498 684 441 711 q 587 612 554 656 l 593 697 l 717 697 l 717 18 q 620 -239 717 -144 q 359 -334 522 -334 q 39 -187 163 -334 m 238 523 q 208 490 238 523 q 179 349 179 456 q 238 174 179 241 q 389 107 296 107 q 581 225 509 107 l 581 472 q 389 590 509 590 q 238 523 296 590 z "},"h":{"ha":809,"x_min":107,"x_max":721,"o":"m 107 0 l 107 1055 l 243 1055 l 243 621 q 333 688 283 665 q 457 711 383 711 q 651 630 581 711 q 721 412 721 549 l 721 0 l 585 0 l 585 404 q 541 533 585 484 q 424 582 497 582 q 243 471 321 582 l 243 0 l 107 0 z "},"i":{"ha":351,"x_min":87,"x_max":265,"o":"m 87 922 q 113 986 87 960 q 176 1011 138 1011 q 240 986 214 1011 q 265 922 265 960 q 240 859 265 884 q 176 833 214 833 q 113 859 138 833 q 87 922 87 884 m 107 0 l 107 697 l 243 697 l 243 0 l 107 0 z "},"j":{"ha":351,"x_min":-225,"x_max":265,"o":"m -225 -248 l -136 -155 q -17 -212 -84 -212 q 73 -178 39 -212 q 107 -89 107 -144 l 107 697 l 243 697 l 243 -79 q 171 -261 243 -189 q -14 -334 98 -334 q -225 -248 -141 -334 m 87 922 q 113 986 87 960 q 176 1011 138 1011 q 240 986 214 1011 q 265 922 265 960 q 240 859 265 884 q 176 833 214 833 q 113 859 138 833 q 87 922 87 884 z "},"k":{"ha":751,"x_min":107,"x_max":742,"o":"m 107 0 l 107 1055 l 243 1055 l 243 250 l 545 697 l 707 697 l 493 392 l 742 0 l 582 0 l 407 279 l 216 0 l 107 0 z "},"l":{"ha":351,"x_min":107,"x_max":243,"o":"m 107 0 l 107 1055 l 243 1055 l 243 0 l 107 0 z "},"m":{"ha":1261,"x_min":107,"x_max":1173,"o":"m 107 0 l 107 697 l 231 697 l 236 612 q 325 684 269 656 q 454 711 380 711 q 584 678 530 711 q 669 583 639 645 q 920 711 761 711 q 1105 630 1038 711 q 1173 412 1173 549 l 1173 0 l 1035 0 l 1035 404 q 994 533 1035 484 q 884 582 953 582 q 704 467 785 582 q 707 424 707 435 l 707 0 l 571 0 l 571 404 q 530 533 571 484 q 419 582 488 582 q 323 553 364 582 q 243 472 281 524 l 243 0 l 107 0 z "},"n":{"ha":809,"x_min":107,"x_max":721,"o":"m 107 0 l 107 697 l 231 697 l 236 612 q 326 683 269 655 q 457 711 382 711 q 651 630 581 711 q 721 412 721 549 l 721 0 l 585 0 l 585 404 q 541 533 585 484 q 424 582 497 582 q 243 471 321 582 l 243 0 l 107 0 z "},"o":{"ha":798,"x_min":41,"x_max":757,"o":"m 142 88 q 92 139 142 88 q 41 347 41 190 q 143 608 41 505 q 399 711 244 711 q 583 664 500 711 q 711 534 665 617 q 757 347 757 451 q 655 89 757 191 q 399 -14 554 -14 q 142 88 243 -14 m 179 347 q 241 175 179 243 q 399 107 303 107 q 557 175 494 107 q 619 347 619 243 q 557 521 619 452 q 399 590 494 590 q 241 521 303 590 q 179 347 179 452 z "},"p":{"ha":823,"x_min":107,"x_max":782,"o":"m 107 -319 l 107 697 l 231 697 l 236 612 q 326 684 269 656 q 460 711 382 711 q 692 609 603 711 q 782 349 782 507 q 692 89 782 191 q 460 -14 603 -14 q 243 75 318 -14 l 243 -319 l 107 -319 m 243 225 q 435 107 315 107 q 586 174 527 107 q 644 349 644 241 q 586 523 644 456 q 435 590 527 590 q 243 472 315 590 l 243 225 z "},"q":{"ha":823,"x_min":41,"x_max":717,"o":"m 131 89 q 86 140 131 89 q 41 349 41 191 q 131 609 41 507 q 364 711 221 711 q 498 684 441 711 q 587 612 554 656 l 593 697 l 717 697 l 717 -319 l 581 -319 l 581 75 q 364 -14 505 -14 q 131 89 221 -14 m 238 523 q 208 490 238 523 q 179 349 179 456 q 238 174 179 241 q 389 107 296 107 q 581 225 509 107 l 581 472 q 389 590 509 590 q 238 523 296 590 z "},"r":{"ha":464,"x_min":107,"x_max":444,"o":"m 107 0 l 107 697 l 231 697 l 237 603 q 319 681 267 650 q 444 711 372 711 l 444 575 l 432 575 q 327 545 372 575 q 243 458 282 515 l 243 0 l 107 0 z "},"s":{"ha":634,"x_min":41,"x_max":586,"o":"m 41 71 l 104 179 q 309 107 187 107 q 411 129 374 107 q 449 195 449 151 q 417 257 449 236 q 300 297 385 277 q 122 373 176 326 q 68 501 68 420 q 138 656 68 600 q 332 711 209 711 q 460 690 399 711 q 564 635 522 669 l 505 529 q 332 590 427 590 q 204 510 204 590 q 234 452 204 470 q 350 414 264 434 q 529 333 472 385 q 586 203 586 282 q 511 45 586 104 q 307 -14 435 -14 q 159 9 229 -14 q 41 71 89 31 z "},"t":{"ha":553,"x_min":17,"x_max":547,"o":"m 17 581 l 17 697 l 153 697 l 153 933 l 289 933 l 289 697 l 509 697 l 509 581 l 289 581 l 289 235 q 321 143 289 176 q 408 110 354 110 q 509 132 470 110 l 547 25 q 397 -14 486 -14 q 218 51 284 -14 q 153 233 153 115 l 153 581 l 17 581 z "},"u":{"ha":798,"x_min":90,"x_max":692,"o":"m 90 282 l 90 697 l 227 697 l 227 289 q 266 163 227 211 q 374 115 306 115 q 476 145 434 115 q 555 227 518 174 l 555 697 l 692 697 l 692 0 l 568 0 l 562 85 q 339 -14 486 -14 q 156 66 221 -14 q 90 282 90 146 z "},"v":{"ha":753,"x_min":14,"x_max":737,"o":"m 14 697 l 167 697 l 376 272 l 586 697 l 737 697 l 379 -14 l 374 -14 l 14 697 z "},"w":{"ha":1061,"x_min":14,"x_max":1046,"o":"m 14 697 l 167 697 l 336 293 l 528 697 l 533 697 l 725 293 l 895 697 l 1046 697 l 736 -14 l 730 -14 l 530 400 l 329 -14 l 323 -14 l 14 697 z "},"x":{"ha":694,"x_min":16,"x_max":675,"o":"m 16 0 l 253 354 l 25 697 l 184 697 l 345 452 l 505 697 l 665 697 l 437 354 l 675 0 l 514 0 l 345 254 l 176 0 l 16 0 z "},"y":{"ha":766,"x_min":22,"x_max":746,"o":"m 22 697 l 174 697 l 383 267 l 593 697 l 746 697 l 236 -319 l 81 -319 l 310 114 l 22 697 z "},"z":{"ha":629,"x_min":32,"x_max":596,"o":"m 32 0 l 32 5 l 378 581 l 53 581 l 53 697 l 596 697 l 596 692 l 249 117 l 595 117 l 595 0 l 32 0 z "},"{":{"ha":465,"x_min":36,"x_max":431,"o":"m 36 399 l 36 404 q 144 459 106 420 q 165 559 181 498 l 153 647 q 144 788 132 727 q 195 889 156 848 q 295 950 235 930 q 431 971 355 971 l 431 860 q 363 849 393 860 q 311 817 334 839 q 281 759 288 794 q 281 672 273 723 l 293 582 q 287 467 311 513 q 214 401 264 421 q 287 336 264 382 q 293 221 311 290 l 281 131 q 281 44 273 80 q 311 -14 288 9 q 363 -46 334 -36 q 431 -57 393 -57 l 431 -168 q 294 -148 354 -168 q 195 -87 235 -127 q 144 15 156 -46 q 153 155 132 75 l 165 243 q 144 343 181 304 q 36 399 106 382 z "},"|":{"ha":328,"x_min":98,"x_max":229,"o":"m 98 -168 l 98 971 l 229 971 l 229 -168 l 98 -168 z "},"}":{"ha":465,"x_min":35,"x_max":429,"o":"m 35 -57 q 102 -46 72 -57 q 154 -14 132 -36 q 184 44 177 9 q 184 131 192 80 l 172 221 q 178 336 155 290 q 252 401 201 382 q 178 467 201 421 q 172 582 155 513 l 184 672 q 184 759 192 723 q 154 817 177 794 q 102 849 132 839 q 35 860 72 860 l 35 971 q 171 950 111 971 q 271 889 231 930 q 322 788 310 848 q 314 647 334 727 l 300 559 q 321 459 284 498 q 429 404 359 420 l 429 399 q 321 343 359 382 q 300 243 284 304 l 314 155 q 322 15 334 75 q 271 -87 310 -46 q 171 -148 231 -127 q 35 -168 111 -168 l 35 -57 z "},"~":{"ha":817,"x_min":36,"x_max":781,"o":"m 36 439 q 126 566 68 520 q 264 612 185 612 q 339 600 304 612 q 398 570 374 587 q 446 534 423 552 q 496 504 469 517 q 553 492 524 492 q 643 522 606 492 q 699 602 680 552 l 781 539 q 689 412 749 458 q 553 366 630 366 q 477 378 511 366 q 419 408 443 391 q 374 444 396 426 q 324 474 352 461 q 264 486 296 486 q 174 456 210 486 q 118 376 137 427 l 36 439 z "}," ":{"ha":328,"x_min":0,"x_max":0,"o":""},"¡":{"ha":363,"x_min":93,"x_max":271,"o":"m 93 621 q 119 685 93 659 q 183 710 144 710 q 246 685 221 710 q 271 621 271 659 q 245 557 271 583 q 183 532 220 532 q 119 557 144 532 q 93 621 93 583 m 115 -329 l 115 407 l 252 407 l 252 -329 l 115 -329 z "},"¢":{"ha":707,"x_min":41,"x_max":676,"o":"m 121 107 q 81 156 121 107 q 41 349 41 205 q 121 590 41 492 q 336 707 201 688 l 336 888 l 452 888 l 452 707 q 672 561 590 684 l 571 484 q 395 591 505 591 q 235 524 292 591 q 179 349 179 456 q 236 174 179 241 q 396 106 294 106 q 501 136 456 106 q 575 214 547 166 l 676 136 q 452 -9 594 11 l 452 -203 l 336 -203 l 336 -9 q 121 107 201 9 z "},"£":{"ha":805,"x_min":22,"x_max":755,"o":"m 22 0 l 22 5 q 43 39 26 11 q 66 77 60 68 q 87 115 71 87 q 108 158 102 144 q 126 201 114 172 q 142 248 138 229 q 152 296 146 267 q 158 348 158 324 q 156 401 158 372 q 147 458 154 430 l 31 458 l 31 568 l 121 568 q 98 714 98 653 q 180 952 98 865 q 403 1039 262 1039 q 587 978 513 1039 q 689 832 661 918 l 557 793 q 500 883 541 849 q 399 917 459 917 q 277 865 319 917 q 235 724 235 812 q 260 568 235 671 l 509 568 l 509 458 l 286 458 q 297 368 297 406 q 227 122 297 245 l 475 122 q 585 158 550 122 q 621 277 621 194 l 755 277 q 500 0 755 0 l 22 0 z "},"¤":{"ha":905,"x_min":52,"x_max":854,"o":"m 52 47 l 220 214 q 175 366 175 280 q 220 517 175 448 l 52 684 l 139 771 l 307 603 q 453 646 369 646 q 599 603 535 646 l 766 771 l 854 684 l 686 517 q 729 366 729 451 q 686 214 729 277 l 854 47 l 766 -40 l 597 127 q 453 86 535 86 q 307 127 372 86 l 139 -40 l 52 47 m 336 491 q 313 466 336 491 q 290 366 290 441 q 336 240 290 290 q 453 191 382 191 q 568 240 522 191 q 614 366 614 290 q 568 491 614 441 q 453 542 522 542 q 336 491 382 542 z "},"¥":{"ha":913,"x_min":8,"x_max":905,"o":"m 8 1019 l 174 1019 l 457 572 l 739 1019 l 905 1019 l 582 521 l 757 521 l 757 418 l 528 418 l 528 301 l 757 301 l 757 199 l 528 199 l 528 0 l 386 0 l 386 199 l 158 199 l 158 301 l 386 301 l 386 418 l 158 418 l 158 521 l 330 521 l 8 1019 z "},"¦":{"ha":328,"x_min":98,"x_max":229,"o":"m 98 -168 l 98 260 l 229 260 l 229 -168 l 98 -168 m 98 543 l 98 971 l 229 971 l 229 543 l 98 543 z "},"§":{"ha":595,"x_min":37,"x_max":555,"o":"m 37 -33 l 119 50 q 265 -18 176 -18 q 368 14 329 -18 q 407 100 407 46 q 387 160 407 136 q 325 200 367 184 q 298 208 312 205 q 266 215 283 212 q 237 220 248 218 q 98 302 151 239 q 45 454 45 366 q 77 571 45 519 q 164 648 109 623 q 61 815 61 701 q 132 974 61 909 q 319 1039 203 1039 q 522 958 444 1039 l 446 873 q 319 926 395 926 q 224 897 260 926 q 189 817 189 867 q 281 707 189 736 q 331 695 297 701 q 382 684 365 689 q 508 598 460 661 q 555 454 555 536 q 523 337 555 389 q 436 258 491 285 q 534 102 534 208 q 459 -64 534 3 q 264 -131 384 -131 q 37 -33 121 -131 m 204 548 q 185 530 204 548 q 167 454 167 512 q 203 361 167 397 q 300 325 240 325 q 397 361 359 325 q 435 454 435 397 q 397 548 435 511 q 300 585 359 585 q 204 548 241 585 z "},"¨":{"ha":444,"x_min":28,"x_max":416,"o":"m 50 837 q 39 848 50 837 q 28 890 28 859 q 50 944 28 922 q 103 965 71 965 q 158 944 136 965 q 179 890 179 923 q 158 837 179 858 q 103 815 136 815 q 50 837 71 815 m 287 837 q 276 848 287 837 q 265 890 265 859 q 287 944 265 922 q 340 965 309 965 q 394 944 372 965 q 416 890 416 922 q 394 837 416 859 q 340 815 372 815 q 287 837 309 815 z "},"©":{"ha":930,"x_min":45,"x_max":888,"o":"m 45 647 q 99 869 45 770 q 249 1025 153 968 q 465 1082 345 1082 q 681 1025 584 1082 q 833 869 778 968 q 888 647 888 769 q 856 473 888 554 q 767 336 823 393 q 633 246 711 279 q 465 214 555 214 q 249 269 345 214 q 99 424 153 325 q 45 647 45 523 m 136 647 q 229 397 136 496 q 465 298 322 298 q 701 397 608 298 q 794 647 794 496 q 701 896 794 795 q 465 996 608 996 q 295 950 371 996 q 178 824 220 904 q 136 647 136 745 m 243 652 q 310 824 243 755 q 481 892 378 892 q 647 822 583 892 l 591 757 q 481 804 549 804 q 375 763 414 804 q 335 652 335 721 q 375 540 335 581 q 481 498 414 498 q 593 547 551 498 l 648 482 q 481 411 583 411 q 310 479 377 411 q 243 652 243 547 z "},"ª":{"ha":597,"x_min":36,"x_max":518,"o":"m 98 601 q 67 637 98 601 q 36 783 36 673 q 98 966 36 894 q 256 1039 159 1039 q 412 972 357 1039 l 416 1029 l 518 1029 l 518 539 l 416 539 l 412 596 q 256 529 356 529 q 98 601 159 529 m 186 897 q 167 875 186 897 q 149 783 149 854 q 186 670 149 713 q 283 627 224 627 q 406 699 356 627 l 406 869 q 283 940 357 940 q 186 897 224 940 z "},"«":{"ha":679,"x_min":21,"x_max":659,"o":"m 21 353 l 21 358 l 212 636 l 340 636 l 153 355 l 340 75 l 212 75 l 21 353 m 339 353 l 339 358 l 530 636 l 659 636 l 469 355 l 659 75 l 530 75 l 339 353 z "},"¬":{"ha":808,"x_min":52,"x_max":757,"o":"m 52 507 l 52 603 l 757 603 l 757 216 l 660 216 l 660 507 l 52 507 z "},"­":{"ha":606,"x_min":56,"x_max":550,"o":"m 56 296 l 56 422 l 550 422 l 550 296 l 56 296 z "},"®":{"ha":930,"x_min":45,"x_max":888,"o":"m 45 647 q 99 869 45 770 q 249 1025 153 968 q 465 1082 345 1082 q 681 1025 584 1082 q 833 869 778 968 q 888 647 888 769 q 856 473 888 554 q 767 336 823 393 q 633 246 711 279 q 465 214 555 214 q 249 269 345 214 q 99 424 153 325 q 45 647 45 523 m 136 647 q 229 397 136 496 q 465 298 322 298 q 701 397 608 298 q 794 647 794 496 q 701 896 794 795 q 465 996 608 996 q 295 950 371 996 q 178 824 220 904 q 136 647 136 745 m 298 415 l 298 886 l 472 886 q 593 845 544 886 q 642 734 642 804 q 618 650 642 686 q 554 596 594 614 l 664 415 l 558 415 l 458 579 l 390 579 l 390 415 l 298 415 m 390 663 l 464 663 q 550 733 550 663 q 527 785 550 768 q 464 803 505 803 l 390 803 l 390 663 z "},"¯":{"ha":416,"x_min":28,"x_max":389,"o":"m 28 829 l 28 924 l 389 924 l 389 829 l 28 829 z "},"°":{"ha":476,"x_min":41,"x_max":435,"o":"m 41 843 q 98 982 41 926 q 240 1038 154 1038 q 379 982 323 1038 q 435 843 435 926 q 379 704 435 759 q 240 650 324 650 q 97 704 153 650 q 41 843 41 759 m 136 843 q 165 769 136 798 q 240 739 195 739 q 312 769 283 739 q 342 843 342 798 q 312 919 342 888 q 240 949 283 949 q 165 919 195 949 q 136 843 136 889 z "},"±":{"ha":675,"x_min":54,"x_max":619,"o":"m 54 121 l 54 245 l 619 245 l 619 121 l 54 121 m 54 567 l 54 693 l 273 693 l 273 911 l 399 911 l 399 693 l 619 693 l 619 567 l 399 567 l 399 347 l 273 347 l 273 567 l 54 567 z "},"²":{"ha":479,"x_min":52,"x_max":441,"o":"m 52 979 q 241 1140 83 1140 q 382 1090 328 1140 q 436 960 436 1040 q 418 873 436 911 q 363 787 401 834 l 239 639 l 441 639 l 441 547 l 62 547 l 62 553 l 277 840 q 319 904 307 878 q 332 961 332 930 q 307 1025 332 1001 q 241 1048 281 1048 q 144 958 161 1048 l 52 979 z "},"³":{"ha":472,"x_min":46,"x_max":446,"o":"m 46 688 l 138 710 q 177 650 151 670 q 248 629 203 629 q 317 654 290 629 q 343 721 343 680 q 314 784 343 759 q 240 810 286 810 l 175 810 l 175 889 l 243 889 q 303 910 279 890 q 328 968 328 930 q 303 1026 328 1004 q 240 1048 278 1048 q 146 975 170 1048 l 57 1014 q 243 1140 99 1140 q 377 1090 326 1140 q 429 966 429 1041 q 353 847 429 883 q 421 796 396 829 q 446 715 446 763 q 391 586 446 636 q 248 536 337 536 q 46 688 87 536 z "},"´":{"ha":410,"x_min":21,"x_max":374,"o":"m 21 800 l 212 982 l 374 982 l 158 800 l 21 800 z "},"µ":{"ha":817,"x_min":107,"x_max":708,"o":"m 107 -319 l 107 697 l 243 697 l 243 289 q 282 163 243 211 q 390 115 322 115 q 493 145 450 115 q 572 227 535 174 l 572 697 l 708 697 l 708 0 l 585 0 l 579 85 q 492 14 545 41 q 370 -14 439 -14 q 243 18 289 -14 l 243 -319 l 107 -319 z "},"¶":{"ha":973,"x_min":35,"x_max":924,"o":"m 35 717 q 138 943 35 865 q 414 1021 242 1021 l 924 1021 l 924 913 l 800 913 l 800 -153 l 684 -153 l 684 913 l 533 913 l 533 -153 l 416 -153 l 416 425 l 412 425 q 294 436 349 425 q 190 470 238 447 q 108 527 142 493 q 54 609 73 561 q 35 717 35 658 z "},"·":{"ha":267,"x_min":41,"x_max":225,"o":"m 41 355 q 67 421 41 395 q 134 447 94 447 q 199 421 174 447 q 225 355 225 395 q 199 291 225 317 q 134 265 173 265 q 68 291 94 265 q 41 355 41 317 z "},"¸":{"ha":340,"x_min":29,"x_max":318,"o":"m 29 -294 l 83 -232 q 163 -271 117 -271 q 207 -256 191 -271 q 224 -212 224 -241 q 167 -154 224 -160 q 100 -164 132 -151 l 96 -158 l 127 22 l 208 17 l 193 -78 q 285 -117 252 -83 q 318 -208 318 -151 q 278 -311 318 -273 q 167 -350 237 -350 q 29 -294 78 -350 z "},"¹":{"ha":357,"x_min":36,"x_max":282,"o":"m 36 1006 l 279 1140 l 282 1140 l 282 547 l 179 547 l 179 975 l 81 913 l 36 1006 z "},"º":{"ha":579,"x_min":36,"x_max":543,"o":"m 36 783 q 108 966 36 893 q 290 1039 180 1039 q 471 966 399 1039 q 543 783 543 892 q 471 601 543 673 q 290 529 399 529 q 107 601 179 529 q 36 783 36 673 m 188 896 q 168 873 188 896 q 149 783 149 851 q 188 671 149 715 q 290 627 228 627 q 391 671 351 627 q 431 783 431 715 q 391 896 431 851 q 290 940 351 940 q 188 896 228 940 z "},"»":{"ha":679,"x_min":21,"x_max":659,"o":"m 21 75 l 210 355 l 21 636 l 149 636 l 340 358 l 340 353 l 149 75 l 21 75 m 339 75 l 526 355 l 339 636 l 467 636 l 659 358 l 659 353 l 467 75 l 339 75 z "},"¼":{"ha":1015,"x_min":36,"x_max":993,"o":"m 36 867 l 279 1002 l 282 1002 l 282 408 l 179 408 l 179 836 l 81 774 l 36 867 m 178 0 l 684 1019 l 810 1019 l 304 0 l 178 0 m 517 90 l 517 93 l 914 595 l 917 595 l 917 172 l 993 172 l 993 89 l 917 89 l 917 0 l 817 0 l 817 90 l 517 90 m 688 171 l 818 171 l 818 340 l 688 171 z "},"½":{"ha":1098,"x_min":36,"x_max":1061,"o":"m 36 867 l 279 1002 l 282 1002 l 282 408 l 179 408 l 179 836 l 81 774 l 36 867 m 178 0 l 684 1019 l 810 1019 l 304 0 l 178 0 m 671 432 q 861 593 703 593 q 1002 543 948 593 q 1055 412 1055 492 q 1038 326 1055 364 q 982 240 1020 287 l 859 92 l 1061 92 l 1061 0 l 682 0 l 682 5 l 896 293 q 939 357 927 331 q 951 414 951 382 q 926 477 951 454 q 861 501 901 501 q 764 411 780 501 l 671 432 z "},"¾":{"ha":1132,"x_min":46,"x_max":1108,"o":"m 46 549 l 138 571 q 177 511 151 531 q 248 490 203 490 q 317 515 290 490 q 343 582 343 541 q 314 645 343 620 q 240 671 286 671 l 175 671 l 175 750 l 243 750 q 303 772 279 751 q 328 829 328 792 q 303 887 328 865 q 240 909 278 909 q 146 836 170 909 l 57 875 q 243 1002 99 1002 q 377 952 326 1002 q 429 828 429 903 q 353 708 429 744 q 421 657 396 690 q 446 576 446 624 q 391 447 446 497 q 248 397 337 397 q 46 549 87 397 m 293 0 l 799 1019 l 925 1019 l 419 0 l 293 0 m 632 90 l 632 93 l 1029 595 l 1032 595 l 1032 172 l 1108 172 l 1108 89 l 1032 89 l 1032 0 l 932 0 l 932 90 l 632 90 m 803 171 l 933 171 l 933 340 l 803 171 z "},"¿":{"ha":682,"x_min":52,"x_max":654,"o":"m 52 -68 q 64 21 52 -20 q 97 89 77 61 q 142 140 117 116 q 192 184 167 163 q 236 227 216 205 q 269 277 256 248 q 282 339 282 305 l 282 407 l 419 407 l 419 322 q 407 245 419 280 q 374 185 394 210 q 331 138 355 160 q 283 94 307 115 q 239 51 259 73 q 207 -1 220 28 q 195 -66 195 -31 q 239 -181 195 -139 q 353 -222 283 -222 q 519 -78 491 -222 l 654 -102 q 553 -283 629 -220 q 351 -347 477 -347 q 135 -268 219 -347 q 52 -68 52 -189 m 261 621 q 286 685 261 659 q 350 710 311 710 q 414 685 389 710 q 439 621 439 659 q 414 557 439 583 q 350 532 389 532 q 286 557 311 532 q 261 621 261 583 z "},"À":{"ha":969,"x_min":12,"x_max":957,"o":"m 12 0 l 482 1039 l 488 1039 l 957 0 l 806 0 l 714 208 l 256 208 l 164 0 l 12 0 m 207 1232 l 375 1232 l 559 1072 l 410 1072 l 207 1232 m 309 332 l 661 332 l 485 726 l 309 332 z "},"Á":{"ha":969,"x_min":12,"x_max":957,"o":"m 12 0 l 482 1039 l 488 1039 l 957 0 l 806 0 l 714 208 l 256 208 l 164 0 l 12 0 m 309 332 l 661 332 l 485 726 l 309 332 m 395 1072 l 579 1232 l 747 1232 l 545 1072 l 395 1072 z "},"Â":{"ha":969,"x_min":12,"x_max":957,"o":"m 12 0 l 482 1039 l 488 1039 l 957 0 l 806 0 l 714 208 l 256 208 l 164 0 l 12 0 m 262 1071 l 484 1272 l 704 1071 l 578 1071 l 484 1156 l 389 1071 l 262 1071 m 309 332 l 661 332 l 485 726 l 309 332 z "},"Ã":{"ha":969,"x_min":12,"x_max":957,"o":"m 12 0 l 482 1039 l 488 1039 l 957 0 l 806 0 l 714 208 l 256 208 l 164 0 l 12 0 m 257 1078 q 296 1223 257 1175 q 399 1271 336 1271 q 456 1260 431 1271 q 495 1233 481 1249 q 521 1201 509 1217 q 547 1174 532 1185 q 578 1162 561 1162 q 611 1190 600 1162 q 623 1263 623 1217 l 711 1263 q 672 1119 711 1168 q 570 1069 633 1069 q 512 1081 536 1069 q 475 1108 488 1092 q 451 1140 462 1124 q 427 1167 441 1156 q 395 1178 413 1178 q 347 1078 347 1178 l 257 1078 m 309 332 l 661 332 l 485 726 l 309 332 z "},"Ä":{"ha":969,"x_min":12,"x_max":957,"o":"m 12 0 l 482 1039 l 488 1039 l 957 0 l 806 0 l 714 208 l 256 208 l 164 0 l 12 0 m 312 1098 q 301 1109 312 1098 q 290 1152 290 1120 q 312 1205 290 1183 q 366 1226 334 1226 q 420 1205 399 1226 q 441 1152 441 1184 q 420 1098 441 1119 q 366 1076 399 1076 q 312 1098 334 1076 m 309 332 l 661 332 l 485 726 l 309 332 m 549 1098 q 538 1109 549 1098 q 528 1152 528 1120 q 549 1205 528 1183 q 603 1226 571 1226 q 657 1205 635 1226 q 679 1152 679 1183 q 657 1098 679 1120 q 603 1076 635 1076 q 549 1098 571 1076 z "},"Å":{"ha":969,"x_min":12,"x_max":957,"o":"m 12 0 l 482 1039 l 488 1039 l 957 0 l 806 0 l 714 208 l 256 208 l 164 0 l 12 0 m 309 332 l 661 332 l 485 726 l 309 332 m 332 1219 q 375 1326 332 1284 q 485 1369 419 1369 q 593 1326 549 1369 q 636 1219 636 1284 q 593 1112 636 1154 q 485 1069 550 1069 q 375 1112 419 1069 q 332 1219 332 1154 m 434 1272 q 423 1261 434 1272 q 412 1219 412 1251 q 433 1168 412 1188 q 485 1147 454 1147 q 536 1167 515 1147 q 557 1219 557 1187 q 536 1272 557 1251 q 485 1293 515 1293 q 434 1272 455 1293 z "},"Æ":{"ha":1208,"x_min":12,"x_max":1165,"o":"m 12 0 l 456 1021 l 1154 1021 l 1154 890 l 585 890 l 714 578 l 1095 578 l 1095 457 l 764 457 l 900 131 l 1165 131 l 1165 0 l 799 0 l 710 215 l 258 215 l 171 0 l 12 0 m 304 326 l 665 326 l 485 768 l 304 326 z "},"Ç":{"ha":944,"x_min":46,"x_max":926,"o":"m 46 510 q 112 781 46 661 q 294 970 177 902 q 559 1039 412 1039 q 921 890 774 1039 l 831 787 q 559 908 720 908 q 366 857 451 908 q 235 715 281 806 q 189 510 189 625 q 235 306 189 396 q 366 164 281 216 q 559 113 451 113 q 715 147 645 113 q 838 240 786 181 l 926 135 q 564 -18 788 -16 l 554 -78 q 646 -117 612 -83 q 679 -208 679 -151 q 638 -311 679 -273 q 528 -350 598 -350 q 390 -294 439 -350 l 444 -232 q 524 -271 478 -271 q 568 -256 551 -271 q 585 -212 585 -241 q 528 -154 585 -160 q 461 -164 494 -151 l 457 -158 l 482 -12 q 255 76 354 5 q 101 260 156 147 q 46 510 46 373 z "},"È":{"ha":801,"x_min":114,"x_max":757,"o":"m 114 0 l 114 1021 l 746 1021 l 746 890 l 256 890 l 256 581 l 686 581 l 686 454 l 256 454 l 256 131 l 757 131 l 757 0 l 114 0 m 164 1232 l 332 1232 l 517 1072 l 367 1072 l 164 1232 z "},"É":{"ha":801,"x_min":114,"x_max":757,"o":"m 114 0 l 114 1021 l 746 1021 l 746 890 l 256 890 l 256 581 l 686 581 l 686 454 l 256 454 l 256 131 l 757 131 l 757 0 l 114 0 m 353 1072 l 538 1232 l 705 1232 l 503 1072 l 353 1072 z "},"Ê":{"ha":801,"x_min":114,"x_max":757,"o":"m 114 0 l 114 1021 l 746 1021 l 746 890 l 256 890 l 256 581 l 686 581 l 686 454 l 256 454 l 256 131 l 757 131 l 757 0 l 114 0 m 220 1071 l 440 1272 l 661 1071 l 534 1071 l 440 1156 l 346 1071 l 220 1071 z "},"Ë":{"ha":801,"x_min":114,"x_max":757,"o":"m 114 0 l 114 1021 l 746 1021 l 746 890 l 256 890 l 256 581 l 686 581 l 686 454 l 256 454 l 256 131 l 757 131 l 757 0 l 114 0 m 269 1098 q 258 1109 269 1098 q 248 1152 248 1120 q 269 1205 248 1183 q 322 1226 290 1226 q 377 1205 355 1226 q 399 1152 399 1183 q 377 1098 399 1119 q 322 1076 355 1076 q 269 1098 290 1076 m 506 1098 q 496 1109 506 1098 q 485 1152 485 1120 q 506 1205 485 1183 q 559 1226 528 1226 q 614 1205 592 1226 q 636 1152 636 1183 q 614 1098 636 1120 q 559 1076 591 1076 q 506 1098 528 1076 z "},"Ì":{"ha":369,"x_min":-92,"x_max":261,"o":"m -92 1232 l 77 1232 l 261 1072 l 111 1072 l -92 1232 m 114 0 l 114 1021 l 256 1021 l 256 0 l 114 0 z "},"Í":{"ha":369,"x_min":94,"x_max":447,"o":"m 94 1072 l 279 1232 l 447 1232 l 244 1072 l 94 1072 m 114 0 l 114 1021 l 256 1021 l 256 0 l 114 0 z "},"Î":{"ha":369,"x_min":-36,"x_max":406,"o":"m -36 1071 l 184 1272 l 406 1071 l 279 1071 l 184 1156 l 90 1071 l -36 1071 m 114 0 l 114 1021 l 256 1021 l 256 0 l 114 0 z "},"Ï":{"ha":369,"x_min":-8,"x_max":380,"o":"m 13 1098 q 3 1109 13 1098 q -8 1152 -8 1120 q 13 1205 -8 1183 q 66 1226 35 1226 q 121 1205 100 1226 q 143 1152 143 1183 q 121 1098 143 1119 q 66 1076 100 1076 q 13 1098 35 1076 m 114 0 l 114 1021 l 256 1021 l 256 0 l 114 0 m 251 1098 q 240 1109 251 1098 q 229 1152 229 1120 q 251 1205 229 1183 q 304 1226 273 1226 q 358 1205 336 1226 q 380 1152 380 1183 q 358 1098 380 1120 q 304 1076 336 1076 q 251 1098 273 1076 z "},"Ð":{"ha":1042,"x_min":18,"x_max":996,"o":"m 18 476 l 18 572 l 139 572 l 139 1021 l 447 1021 q 851 887 706 1021 q 996 511 996 753 q 851 135 996 269 q 447 0 707 0 l 139 0 l 139 476 l 18 476 m 281 131 l 443 131 q 746 231 640 131 q 852 511 852 330 q 746 790 852 691 q 443 889 639 889 l 281 889 l 281 572 l 439 572 l 439 476 l 281 476 l 281 131 z "},"Ñ":{"ha":1012,"x_min":114,"x_max":899,"o":"m 114 0 l 114 1039 l 119 1039 l 757 336 l 757 1021 l 899 1021 l 899 -18 l 893 -18 l 256 686 l 256 0 l 114 0 m 279 1078 q 319 1223 279 1175 q 421 1271 358 1271 q 478 1260 454 1271 q 517 1233 503 1249 q 543 1201 532 1217 q 569 1174 555 1185 q 600 1162 583 1162 q 644 1263 644 1162 l 733 1263 q 694 1119 733 1168 q 591 1069 654 1069 q 534 1081 558 1069 q 497 1108 510 1092 q 473 1140 484 1124 q 449 1167 463 1156 q 416 1178 435 1178 q 370 1078 370 1178 l 279 1078 z "},"Ò":{"ha":1119,"x_min":46,"x_max":1075,"o":"m 46 510 q 112 781 46 661 q 295 970 178 902 q 559 1039 413 1039 q 764 999 669 1039 q 928 889 860 959 q 1036 721 996 819 q 1075 510 1075 623 q 1008 238 1075 359 q 823 50 941 117 q 559 -18 705 -18 q 296 50 413 -18 q 112 238 178 117 q 46 510 46 359 m 189 510 q 293 225 189 337 q 559 113 397 113 q 826 225 722 113 q 930 510 930 337 q 826 795 930 683 q 559 908 722 908 q 368 857 453 908 q 236 715 283 806 q 189 510 189 624 m 282 1246 l 450 1246 l 635 1086 l 485 1086 l 282 1246 z "},"Ó":{"ha":1119,"x_min":46,"x_max":1075,"o":"m 46 510 q 112 781 46 661 q 295 970 178 902 q 559 1039 413 1039 q 764 999 669 1039 q 928 889 860 959 q 1036 721 996 819 q 1075 510 1075 623 q 1008 238 1075 359 q 823 50 941 117 q 559 -18 705 -18 q 296 50 413 -18 q 112 238 178 117 q 46 510 46 359 m 189 510 q 293 225 189 337 q 559 113 397 113 q 826 225 722 113 q 930 510 930 337 q 826 795 930 683 q 559 908 722 908 q 368 857 453 908 q 236 715 283 806 q 189 510 189 624 m 471 1086 l 656 1246 l 823 1246 l 621 1086 l 471 1086 z "},"Ô":{"ha":1119,"x_min":46,"x_max":1075,"o":"m 46 510 q 112 781 46 661 q 295 970 178 902 q 559 1039 413 1039 q 764 999 669 1039 q 928 889 860 959 q 1036 721 996 819 q 1075 510 1075 623 q 1008 238 1075 359 q 823 50 941 117 q 559 -18 705 -18 q 296 50 413 -18 q 112 238 178 117 q 46 510 46 359 m 189 510 q 293 225 189 337 q 559 113 397 113 q 826 225 722 113 q 930 510 930 337 q 826 795 930 683 q 559 908 722 908 q 368 857 453 908 q 236 715 283 806 q 189 510 189 624 m 338 1084 l 558 1286 l 779 1084 l 653 1084 l 558 1169 l 464 1084 l 338 1084 z "},"Õ":{"ha":1119,"x_min":46,"x_max":1075,"o":"m 46 510 q 112 781 46 661 q 295 970 178 902 q 559 1039 413 1039 q 764 999 669 1039 q 928 889 860 959 q 1036 721 996 819 q 1075 510 1075 623 q 1008 238 1075 359 q 823 50 941 117 q 559 -18 705 -18 q 296 50 413 -18 q 112 238 178 117 q 46 510 46 359 m 189 510 q 293 225 189 337 q 559 113 397 113 q 826 225 722 113 q 930 510 930 337 q 826 795 930 683 q 559 908 722 908 q 368 857 453 908 q 236 715 283 806 q 189 510 189 624 m 332 1092 q 371 1237 332 1189 q 473 1284 410 1284 q 531 1273 506 1284 q 570 1246 555 1262 q 596 1215 584 1230 q 622 1188 608 1199 q 653 1177 636 1177 q 697 1276 697 1177 l 786 1276 q 747 1132 786 1181 q 644 1083 707 1083 q 587 1094 611 1083 q 550 1121 563 1105 q 526 1153 536 1137 q 502 1180 515 1169 q 469 1192 488 1192 q 422 1092 422 1192 l 332 1092 z "},"Ö":{"ha":1119,"x_min":46,"x_max":1075,"o":"m 46 510 q 112 781 46 661 q 295 970 178 902 q 559 1039 413 1039 q 764 999 669 1039 q 928 889 860 959 q 1036 721 996 819 q 1075 510 1075 623 q 1008 238 1075 359 q 823 50 941 117 q 559 -18 705 -18 q 296 50 413 -18 q 112 238 178 117 q 46 510 46 359 m 189 510 q 293 225 189 337 q 559 113 397 113 q 826 225 722 113 q 930 510 930 337 q 826 795 930 683 q 559 908 722 908 q 368 857 453 908 q 236 715 283 806 q 189 510 189 624 m 387 1112 q 376 1123 387 1112 q 366 1165 366 1133 q 387 1219 366 1197 q 440 1240 408 1240 q 495 1219 473 1240 q 517 1165 517 1198 q 495 1112 517 1133 q 440 1090 473 1090 q 387 1112 408 1090 m 624 1112 q 614 1123 624 1112 q 603 1165 603 1133 q 624 1219 603 1197 q 677 1240 646 1240 q 732 1219 709 1240 q 754 1165 754 1197 q 732 1112 754 1133 q 677 1090 710 1090 q 624 1112 646 1090 z "},"×":{"ha":631,"x_min":61,"x_max":571,"o":"m 61 319 l 228 486 l 61 652 l 150 741 l 317 575 l 482 741 l 571 653 l 404 486 l 571 319 l 482 231 l 317 397 l 150 231 l 61 319 z "},"Ø":{"ha":1119,"x_min":46,"x_max":1075,"o":"m 46 510 q 112 781 46 661 q 295 970 178 902 q 559 1039 413 1039 q 765 999 671 1039 l 839 1132 l 962 1132 l 861 946 q 1018 761 962 874 q 1075 510 1075 648 q 1008 238 1075 359 q 823 50 941 117 q 559 -18 705 -18 q 354 21 450 -18 l 282 -111 l 157 -111 l 258 74 q 102 258 158 144 q 46 510 46 371 m 189 510 q 224 330 189 411 q 323 195 259 248 l 701 880 q 559 908 636 908 q 368 857 453 908 q 236 715 283 806 q 189 510 189 624 m 418 139 q 559 113 479 113 q 826 225 722 113 q 930 510 930 337 q 895 690 930 608 q 794 825 859 772 l 418 139 z "},"Ù":{"ha":957,"x_min":102,"x_max":856,"o":"m 102 359 l 102 1021 l 243 1021 l 243 368 q 303 181 243 250 q 479 113 364 113 q 653 181 593 113 q 714 368 714 250 l 714 1021 l 856 1021 l 856 359 q 759 83 856 184 q 479 -18 662 -18 q 199 83 296 -18 q 102 359 102 184 m 201 1232 l 370 1232 l 554 1072 l 404 1072 l 201 1232 z "},"Ú":{"ha":957,"x_min":102,"x_max":856,"o":"m 102 359 l 102 1021 l 243 1021 l 243 368 q 303 181 243 250 q 479 113 364 113 q 653 181 593 113 q 714 368 714 250 l 714 1021 l 856 1021 l 856 359 q 759 83 856 184 q 479 -18 662 -18 q 199 83 296 -18 q 102 359 102 184 m 389 1072 l 574 1232 l 742 1232 l 539 1072 l 389 1072 z "},"Û":{"ha":957,"x_min":102,"x_max":856,"o":"m 102 359 l 102 1021 l 243 1021 l 243 368 q 303 181 243 250 q 479 113 364 113 q 653 181 593 113 q 714 368 714 250 l 714 1021 l 856 1021 l 856 359 q 759 83 856 184 q 479 -18 662 -18 q 199 83 296 -18 q 102 359 102 184 m 257 1071 l 478 1272 l 699 1071 l 572 1071 l 478 1156 l 383 1071 l 257 1071 z "},"Ü":{"ha":957,"x_min":102,"x_max":856,"o":"m 102 359 l 102 1021 l 243 1021 l 243 368 q 303 181 243 250 q 479 113 364 113 q 653 181 593 113 q 714 368 714 250 l 714 1021 l 856 1021 l 856 359 q 759 83 856 184 q 479 -18 662 -18 q 199 83 296 -18 q 102 359 102 184 m 306 1098 q 296 1109 306 1098 q 285 1152 285 1120 q 306 1205 285 1183 q 359 1226 328 1226 q 414 1205 393 1226 q 436 1152 436 1183 q 414 1098 436 1119 q 359 1076 393 1076 q 306 1098 328 1076 m 544 1098 q 533 1109 544 1098 q 522 1152 522 1120 q 544 1205 522 1183 q 597 1226 566 1226 q 651 1205 629 1226 q 673 1152 673 1183 q 651 1098 673 1120 q 597 1076 629 1076 q 544 1098 566 1076 z "},"Ý":{"ha":916,"x_min":9,"x_max":907,"o":"m 9 1019 l 175 1019 l 458 572 l 741 1019 l 907 1019 l 529 432 l 529 0 l 387 0 l 387 429 l 9 1019 m 368 1072 l 553 1232 l 721 1232 l 518 1072 l 368 1072 z "},"Þ":{"ha":786,"x_min":114,"x_max":747,"o":"m 114 0 l 114 1021 l 256 1021 l 256 838 l 428 838 q 549 818 492 838 q 651 763 606 798 q 721 672 695 727 q 747 550 747 616 q 721 428 747 483 q 651 337 695 372 q 549 282 606 301 q 428 262 492 262 l 256 262 l 256 0 l 114 0 m 256 386 l 415 386 q 550 430 496 386 q 604 550 604 473 q 550 669 604 626 q 415 713 496 713 l 256 713 l 256 386 z "},"ß":{"ha":899,"x_min":118,"x_max":806,"o":"m 118 0 l 118 724 q 161 893 118 820 q 276 1002 204 966 q 436 1039 347 1039 q 654 960 570 1039 q 737 757 737 880 q 703 633 737 684 q 611 557 668 583 q 666 535 640 549 q 718 499 692 522 q 763 448 744 477 q 794 378 782 419 q 806 290 806 338 q 718 66 806 151 q 481 -18 630 -18 q 335 16 395 -18 l 364 138 q 416 115 392 122 q 476 107 439 107 q 609 156 557 107 q 661 292 661 205 q 625 404 661 358 q 524 468 589 449 q 406 485 464 485 l 406 589 q 505 612 454 589 q 595 747 595 654 q 547 870 595 824 q 431 916 499 916 q 303 869 350 916 q 257 730 257 823 l 257 0 l 118 0 z "},"à":{"ha":823,"x_min":41,"x_max":717,"o":"m 131 89 q 86 140 131 89 q 41 349 41 191 q 131 609 41 507 q 364 711 221 711 q 498 684 441 711 q 587 612 554 656 l 593 697 l 717 697 l 717 0 l 593 0 l 587 85 q 498 14 554 41 q 364 -14 441 -14 q 131 89 221 -14 m 129 982 l 290 982 l 482 800 l 345 800 l 129 982 m 238 523 q 208 490 238 523 q 179 349 179 456 q 238 174 179 241 q 389 107 296 107 q 581 225 509 107 l 581 472 q 389 590 509 590 q 238 523 296 590 z "},"á":{"ha":823,"x_min":41,"x_max":717,"o":"m 131 89 q 86 140 131 89 q 41 349 41 191 q 131 609 41 507 q 364 711 221 711 q 498 684 441 711 q 587 612 554 656 l 593 697 l 717 697 l 717 0 l 593 0 l 587 85 q 498 14 554 41 q 364 -14 441 -14 q 131 89 221 -14 m 238 523 q 208 490 238 523 q 179 349 179 456 q 238 174 179 241 q 389 107 296 107 q 581 225 509 107 l 581 472 q 389 590 509 590 q 238 523 296 590 m 326 800 l 518 982 l 679 982 l 464 800 l 326 800 z "},"â":{"ha":823,"x_min":41,"x_max":717,"o":"m 131 89 q 86 140 131 89 q 41 349 41 191 q 131 609 41 507 q 364 711 221 711 q 498 684 441 711 q 587 612 554 656 l 593 697 l 717 697 l 717 0 l 593 0 l 587 85 q 498 14 554 41 q 364 -14 441 -14 q 131 89 221 -14 m 238 523 q 208 490 238 523 q 179 349 179 456 q 238 174 179 241 q 389 107 296 107 q 581 225 509 107 l 581 472 q 389 590 509 590 q 238 523 296 590 m 192 800 l 407 1032 l 621 800 l 497 800 l 407 890 l 315 800 l 192 800 z "},"ã":{"ha":823,"x_min":41,"x_max":717,"o":"m 131 89 q 86 140 131 89 q 41 349 41 191 q 131 609 41 507 q 364 711 221 711 q 498 684 441 711 q 587 612 554 656 l 593 697 l 717 697 l 717 0 l 593 0 l 587 85 q 498 14 554 41 q 364 -14 441 -14 q 131 89 221 -14 m 238 523 q 208 490 238 523 q 179 349 179 456 q 238 174 179 241 q 389 107 296 107 q 581 225 509 107 l 581 472 q 389 590 509 590 q 238 523 296 590 m 180 803 q 220 948 180 900 q 322 996 259 996 q 379 984 355 996 q 418 957 404 973 q 444 926 433 941 q 470 899 456 910 q 501 888 484 888 q 546 987 546 888 l 635 987 q 595 843 635 892 q 493 794 556 794 q 436 805 460 794 q 398 832 412 817 q 375 864 385 848 q 350 891 364 880 q 318 903 336 903 q 271 803 271 903 l 180 803 z "},"ä":{"ha":823,"x_min":41,"x_max":717,"o":"m 131 89 q 86 140 131 89 q 41 349 41 191 q 131 609 41 507 q 364 711 221 711 q 498 684 441 711 q 587 612 554 656 l 593 697 l 717 697 l 717 0 l 593 0 l 587 85 q 498 14 554 41 q 364 -14 441 -14 q 131 89 221 -14 m 238 523 q 208 490 238 523 q 179 349 179 456 q 238 174 179 241 q 389 107 296 107 q 581 225 509 107 l 581 472 q 389 590 509 590 q 238 523 296 590 m 235 837 q 224 848 235 837 q 214 890 214 859 q 235 944 214 922 q 289 965 257 965 q 344 944 322 965 q 366 890 366 922 q 344 837 366 858 q 289 815 322 815 q 235 837 257 815 m 473 837 q 462 848 473 837 q 452 890 452 859 q 473 944 452 922 q 526 965 494 965 q 581 944 559 965 q 603 890 603 922 q 581 837 603 859 q 526 815 558 815 q 473 837 494 815 z "},"å":{"ha":823,"x_min":41,"x_max":717,"o":"m 131 89 q 86 140 131 89 q 41 349 41 191 q 131 609 41 507 q 364 711 221 711 q 498 684 441 711 q 587 612 554 656 l 593 697 l 717 697 l 717 0 l 593 0 l 587 85 q 498 14 554 41 q 364 -14 441 -14 q 131 89 221 -14 m 238 523 q 208 490 238 523 q 179 349 179 456 q 238 174 179 241 q 389 107 296 107 q 581 225 509 107 l 581 472 q 389 590 509 590 q 238 523 296 590 m 299 835 q 277 856 299 835 q 256 942 256 878 q 299 1050 256 1006 q 408 1093 342 1093 q 516 1050 473 1093 q 559 942 559 1006 q 516 835 559 878 q 408 793 473 793 q 299 835 342 793 m 336 942 q 357 891 336 911 q 408 871 378 871 q 460 891 439 871 q 481 942 481 911 q 459 994 481 972 q 408 1015 438 1015 q 357 994 378 1015 q 336 942 336 973 z "},"æ":{"ha":1311,"x_min":41,"x_max":1265,"o":"m 131 89 q 86 140 131 89 q 41 349 41 191 q 131 609 41 507 q 364 711 221 711 q 498 684 441 711 q 587 612 554 656 l 593 697 l 710 697 l 715 612 q 945 711 807 711 q 1119 664 1045 711 q 1229 536 1192 617 q 1265 350 1265 455 l 1265 300 l 742 300 q 801 153 749 203 q 958 103 853 103 q 1072 127 1021 103 q 1154 192 1122 151 l 1249 113 q 962 -14 1144 -14 q 811 13 875 -14 q 714 85 747 40 l 708 0 l 593 0 l 587 85 q 498 14 554 41 q 364 -14 441 -14 q 131 89 221 -14 m 238 523 q 208 490 238 523 q 179 349 179 456 q 238 174 179 241 q 389 107 296 107 q 581 225 509 107 l 581 472 q 389 590 509 590 q 238 523 296 590 m 741 411 l 1131 411 q 1076 545 1126 494 q 939 595 1026 595 q 803 549 858 595 q 741 411 748 503 z "},"ç":{"ha":703,"x_min":41,"x_max":676,"o":"m 41 349 q 138 610 41 508 q 393 711 234 711 q 672 561 572 711 l 571 484 q 395 591 505 591 q 235 524 292 591 q 179 349 179 456 q 236 174 179 241 q 396 106 294 106 q 501 136 456 106 q 575 214 547 166 l 676 136 q 401 -14 581 -9 l 392 -78 q 484 -117 450 -83 q 517 -208 517 -151 q 476 -311 517 -273 q 366 -350 436 -350 q 228 -294 277 -350 l 282 -232 q 361 -271 316 -271 q 406 -256 389 -271 q 422 -212 422 -241 q 366 -154 422 -160 q 298 -164 331 -151 l 294 -158 l 321 -7 q 116 113 191 16 q 41 349 41 209 z "},"è":{"ha":736,"x_min":41,"x_max":690,"o":"m 41 347 q 135 608 41 505 q 375 711 229 711 q 512 683 451 711 q 611 606 572 655 q 670 493 650 557 q 690 354 690 429 l 690 300 l 179 300 q 236 154 182 204 q 390 103 291 103 q 503 127 455 103 q 579 192 551 152 l 673 113 q 390 -14 571 -14 q 136 87 231 -14 q 41 347 41 188 m 94 982 l 256 982 l 447 800 l 310 800 l 94 982 m 179 411 l 555 411 q 505 545 552 495 q 375 595 458 595 q 238 545 291 595 q 179 411 184 494 z "},"é":{"ha":736,"x_min":41,"x_max":690,"o":"m 41 347 q 135 608 41 505 q 375 711 229 711 q 512 683 451 711 q 611 606 572 655 q 670 493 650 557 q 690 354 690 429 l 690 300 l 179 300 q 236 154 182 204 q 390 103 291 103 q 503 127 455 103 q 579 192 551 152 l 673 113 q 390 -14 571 -14 q 136 87 231 -14 q 41 347 41 188 m 179 411 l 555 411 q 505 545 552 495 q 375 595 458 595 q 238 545 291 595 q 179 411 184 494 m 293 800 l 485 982 l 646 982 l 431 800 l 293 800 z "},"ê":{"ha":736,"x_min":41,"x_max":690,"o":"m 41 347 q 135 608 41 505 q 375 711 229 711 q 512 683 451 711 q 611 606 572 655 q 670 493 650 557 q 690 354 690 429 l 690 300 l 179 300 q 236 154 182 204 q 390 103 291 103 q 503 127 455 103 q 579 192 551 152 l 673 113 q 390 -14 571 -14 q 136 87 231 -14 q 41 347 41 188 m 158 800 l 374 1032 l 587 800 l 464 800 l 374 890 l 282 800 l 158 800 m 179 411 l 555 411 q 505 545 552 495 q 375 595 458 595 q 238 545 291 595 q 179 411 184 494 z "},"ë":{"ha":736,"x_min":41,"x_max":690,"o":"m 41 347 q 135 608 41 505 q 375 711 229 711 q 512 683 451 711 q 611 606 572 655 q 670 493 650 557 q 690 354 690 429 l 690 300 l 179 300 q 236 154 182 204 q 390 103 291 103 q 503 127 455 103 q 579 192 551 152 l 673 113 q 390 -14 571 -14 q 136 87 231 -14 q 41 347 41 188 m 179 411 l 555 411 q 505 545 552 495 q 375 595 458 595 q 238 545 291 595 q 179 411 184 494 m 201 837 q 190 848 201 837 q 179 890 179 859 q 201 944 179 922 q 254 965 222 965 q 309 944 288 965 q 330 890 330 923 q 309 837 330 858 q 254 815 288 815 q 201 837 222 815 m 438 837 q 427 848 438 837 q 416 890 416 859 q 438 944 416 922 q 492 965 460 965 q 546 944 524 965 q 568 890 568 922 q 546 837 568 859 q 492 815 524 815 q 438 837 460 815 z "},"ì":{"ha":351,"x_min":-103,"x_max":250,"o":"m -103 982 l 58 982 l 250 800 l 113 800 l -103 982 m 107 0 l 107 697 l 243 697 l 243 0 l 107 0 z "},"í":{"ha":351,"x_min":94,"x_max":447,"o":"m 94 800 l 286 982 l 447 982 l 232 800 l 94 800 m 107 0 l 107 697 l 243 697 l 243 0 l 107 0 z "},"î":{"ha":351,"x_min":-39,"x_max":390,"o":"m -39 800 l 176 1032 l 390 800 l 267 800 l 176 890 l 85 800 l -39 800 m 107 0 l 107 697 l 243 697 l 243 0 l 107 0 z "},"ï":{"ha":351,"x_min":-18,"x_max":371,"o":"m 3 837 q -7 848 3 837 q -18 890 -18 859 q 3 944 -18 922 q 57 965 25 965 q 112 944 90 965 q 134 890 134 922 q 112 837 134 858 q 57 815 90 815 q 3 837 25 815 m 107 0 l 107 697 l 243 697 l 243 0 l 107 0 m 241 837 q 230 848 241 837 q 220 890 220 859 q 241 944 220 922 q 294 965 262 965 q 349 944 327 965 q 371 890 371 922 q 349 837 371 859 q 294 815 326 815 q 241 837 262 815 z "},"ð":{"ha":787,"x_min":49,"x_max":745,"o":"m 49 329 q 147 575 49 477 q 396 673 245 673 q 419 672 412 673 l 338 794 l 98 794 l 98 897 l 268 897 l 163 1055 l 328 1055 l 433 897 l 676 897 l 676 794 l 503 794 l 665 553 q 745 329 745 458 q 646 83 745 180 q 396 -14 547 -14 q 147 83 245 -14 q 49 329 49 180 m 244 494 q 214 461 244 494 q 184 329 184 428 q 244 165 184 230 q 396 100 304 100 q 548 165 488 100 q 608 329 608 230 q 548 494 608 428 q 396 559 488 559 q 244 494 304 559 z "},"ñ":{"ha":809,"x_min":107,"x_max":721,"o":"m 107 0 l 107 697 l 231 697 l 236 612 q 326 683 269 655 q 457 711 382 711 q 651 630 581 711 q 721 412 721 549 l 721 0 l 585 0 l 585 404 q 541 533 585 484 q 424 582 497 582 q 243 471 321 582 l 243 0 l 107 0 m 186 803 q 225 948 186 900 q 328 996 264 996 q 385 984 360 996 q 424 957 410 973 q 450 926 438 941 q 476 899 462 910 q 507 888 490 888 q 551 987 551 888 l 640 987 q 601 843 640 892 q 498 794 562 794 q 441 805 465 794 q 404 832 417 817 q 380 864 391 848 q 356 891 370 880 q 323 903 342 903 q 277 803 277 903 l 186 803 z "},"ò":{"ha":798,"x_min":41,"x_max":757,"o":"m 142 88 q 92 139 142 88 q 41 347 41 190 q 143 608 41 505 q 399 711 244 711 q 583 664 500 711 q 711 534 665 617 q 757 347 757 451 q 655 89 757 191 q 399 -14 554 -14 q 142 88 243 -14 m 119 982 l 281 982 l 472 800 l 335 800 l 119 982 m 179 347 q 241 175 179 243 q 399 107 303 107 q 557 175 494 107 q 619 347 619 243 q 557 521 619 452 q 399 590 494 590 q 241 521 303 590 q 179 347 179 452 z "},"ó":{"ha":798,"x_min":41,"x_max":757,"o":"m 142 88 q 92 139 142 88 q 41 347 41 190 q 143 608 41 505 q 399 711 244 711 q 583 664 500 711 q 711 534 665 617 q 757 347 757 451 q 655 89 757 191 q 399 -14 554 -14 q 142 88 243 -14 m 179 347 q 241 175 179 243 q 399 107 303 107 q 557 175 494 107 q 619 347 619 243 q 557 521 619 452 q 399 590 494 590 q 241 521 303 590 q 179 347 179 452 m 318 800 l 510 982 l 671 982 l 456 800 l 318 800 z "},"ô":{"ha":798,"x_min":41,"x_max":757,"o":"m 142 88 q 92 139 142 88 q 41 347 41 190 q 143 608 41 505 q 399 711 244 711 q 583 664 500 711 q 711 534 665 617 q 757 347 757 451 q 655 89 757 191 q 399 -14 554 -14 q 142 88 243 -14 m 179 347 q 241 175 179 243 q 399 107 303 107 q 557 175 494 107 q 619 347 619 243 q 557 521 619 452 q 399 590 494 590 q 241 521 303 590 q 179 347 179 452 m 183 800 l 399 1032 l 612 800 l 489 800 l 399 890 l 307 800 l 183 800 z "},"õ":{"ha":798,"x_min":41,"x_max":757,"o":"m 142 88 q 92 139 142 88 q 41 347 41 190 q 143 608 41 505 q 399 711 244 711 q 583 664 500 711 q 711 534 665 617 q 757 347 757 451 q 655 89 757 191 q 399 -14 554 -14 q 142 88 243 -14 m 171 803 q 210 948 171 900 q 313 996 250 996 q 370 984 345 996 q 409 957 395 973 q 435 926 423 941 q 460 899 446 910 q 492 888 475 888 q 536 987 536 888 l 625 987 q 586 843 625 892 q 484 794 547 794 q 426 805 450 794 q 389 832 402 817 q 365 864 376 848 q 341 891 355 880 q 309 903 327 903 q 261 803 261 903 l 171 803 m 179 347 q 241 175 179 243 q 399 107 303 107 q 557 175 494 107 q 619 347 619 243 q 557 521 619 452 q 399 590 494 590 q 241 521 303 590 q 179 347 179 452 z "},"ö":{"ha":798,"x_min":41,"x_max":757,"o":"m 142 88 q 92 139 142 88 q 41 347 41 190 q 143 608 41 505 q 399 711 244 711 q 583 664 500 711 q 711 534 665 617 q 757 347 757 451 q 655 89 757 191 q 399 -14 554 -14 q 142 88 243 -14 m 179 347 q 241 175 179 243 q 399 107 303 107 q 557 175 494 107 q 619 347 619 243 q 557 521 619 452 q 399 590 494 590 q 241 521 303 590 q 179 347 179 452 m 226 837 q 215 848 226 837 q 204 890 204 859 q 226 944 204 922 q 279 965 248 965 q 334 944 313 965 q 355 890 355 923 q 334 837 355 858 q 279 815 313 815 q 226 837 248 815 m 463 837 q 452 848 463 837 q 441 890 441 859 q 463 944 441 922 q 517 965 485 965 q 571 944 549 965 q 593 890 593 922 q 571 837 593 859 q 517 815 549 815 q 463 837 485 815 z "},"÷":{"ha":675,"x_min":54,"x_max":619,"o":"m 54 424 l 54 549 l 619 549 l 619 424 l 54 424 m 275 154 q 262 166 275 154 q 250 216 250 178 q 275 279 250 254 q 336 304 299 304 q 399 280 375 304 q 424 216 424 255 q 399 154 424 178 q 336 129 375 129 q 275 154 299 129 m 250 750 q 275 814 250 789 q 336 839 299 839 q 399 814 375 839 q 424 750 424 789 q 399 689 424 713 q 336 664 374 664 q 275 689 299 664 q 250 750 250 713 z "},"ø":{"ha":798,"x_min":41,"x_max":757,"o":"m 41 347 q 143 608 41 505 q 399 711 244 711 q 536 686 475 711 l 596 794 l 688 794 l 608 647 q 718 520 678 599 q 757 347 757 441 q 655 89 757 191 q 399 -14 554 -14 q 264 9 332 -14 l 205 -97 l 113 -97 l 191 47 q 81 173 121 95 q 41 347 41 252 m 172 347 q 250 155 172 227 l 481 582 q 399 597 439 597 q 236 526 300 597 q 172 347 172 455 m 319 114 q 399 100 355 100 q 561 170 497 100 q 625 347 625 240 q 549 538 625 465 l 319 114 z "},"ù":{"ha":798,"x_min":90,"x_max":692,"o":"m 90 282 l 90 697 l 227 697 l 227 289 q 266 163 227 211 q 374 115 306 115 q 476 145 434 115 q 555 227 518 174 l 555 697 l 692 697 l 692 0 l 568 0 l 562 85 q 339 -14 486 -14 q 156 66 221 -14 q 90 282 90 146 m 111 982 l 272 982 l 464 800 l 326 800 l 111 982 z "},"ú":{"ha":798,"x_min":90,"x_max":692,"o":"m 90 282 l 90 697 l 227 697 l 227 289 q 266 163 227 211 q 374 115 306 115 q 476 145 434 115 q 555 227 518 174 l 555 697 l 692 697 l 692 0 l 568 0 l 562 85 q 339 -14 486 -14 q 156 66 221 -14 q 90 282 90 146 m 309 800 l 500 982 l 661 982 l 446 800 l 309 800 z "},"û":{"ha":798,"x_min":90,"x_max":692,"o":"m 90 282 l 90 697 l 227 697 l 227 289 q 266 163 227 211 q 374 115 306 115 q 476 145 434 115 q 555 227 518 174 l 555 697 l 692 697 l 692 0 l 568 0 l 562 85 q 339 -14 486 -14 q 156 66 221 -14 q 90 282 90 146 m 175 800 l 390 1032 l 604 800 l 481 800 l 390 890 l 298 800 l 175 800 z "},"ü":{"ha":798,"x_min":90,"x_max":692,"o":"m 90 282 l 90 697 l 227 697 l 227 289 q 266 163 227 211 q 374 115 306 115 q 476 145 434 115 q 555 227 518 174 l 555 697 l 692 697 l 692 0 l 568 0 l 562 85 q 339 -14 486 -14 q 156 66 221 -14 q 90 282 90 146 m 217 837 q 207 848 217 837 q 196 890 196 859 q 217 944 196 922 q 271 965 239 965 q 326 944 304 965 q 347 890 347 922 q 326 837 347 858 q 271 815 304 815 q 217 837 239 815 m 455 837 q 444 848 455 837 q 433 890 433 859 q 455 944 433 922 q 509 965 477 965 q 563 944 541 965 q 585 890 585 922 q 563 837 585 859 q 509 815 541 815 q 455 837 477 815 z "},"ý":{"ha":766,"x_min":22,"x_max":746,"o":"m 22 697 l 174 697 l 383 267 l 593 697 l 746 697 l 236 -319 l 81 -319 l 310 114 l 22 697 m 292 800 l 484 982 l 644 982 l 429 800 l 292 800 z "},"þ":{"ha":822,"x_min":107,"x_max":782,"o":"m 107 -319 l 107 1055 l 243 1055 l 243 623 q 460 711 318 711 q 692 609 603 711 q 782 349 782 507 q 692 89 782 191 q 460 -14 603 -14 q 243 75 318 -14 l 243 -319 l 107 -319 m 243 225 q 435 107 315 107 q 586 174 527 107 q 644 349 644 241 q 586 523 644 456 q 435 590 527 590 q 243 472 315 590 l 243 225 z "},"ÿ":{"ha":766,"x_min":22,"x_max":746,"o":"m 22 697 l 174 697 l 383 267 l 593 697 l 746 697 l 236 -319 l 81 -319 l 310 114 l 22 697 m 199 837 q 189 848 199 837 q 178 890 178 859 q 199 944 178 922 q 253 965 221 965 q 308 944 286 965 q 329 890 329 923 q 308 837 329 858 q 253 815 286 815 q 199 837 221 815 m 437 837 q 426 848 437 837 q 415 890 415 859 q 437 944 415 922 q 490 965 458 965 q 545 944 523 965 q 567 890 567 922 q 545 837 567 859 q 490 815 522 815 q 437 837 458 815 z "},"Œ":{"ha":1612,"x_min":46,"x_max":1575,"o":"m 46 510 q 112 781 46 661 q 295 970 178 902 q 559 1039 413 1039 q 769 992 673 1039 q 932 863 865 946 l 932 1021 l 1564 1021 l 1564 890 l 1074 890 l 1074 581 l 1504 581 l 1504 454 l 1074 454 l 1074 131 l 1575 131 l 1575 0 l 932 0 l 932 157 q 769 28 865 74 q 559 -18 674 -18 q 296 50 413 -18 q 112 238 178 117 q 46 510 46 359 m 189 510 q 293 225 189 337 q 559 113 397 113 q 826 225 722 113 q 930 510 930 337 q 826 795 930 683 q 559 908 722 908 q 368 857 453 908 q 236 715 283 806 q 189 510 189 624 z "},"œ":{"ha":1319,"x_min":41,"x_max":1274,"o":"m 142 88 q 92 139 142 88 q 41 347 41 190 q 143 608 41 505 q 399 711 244 711 q 564 673 489 711 q 688 568 639 635 q 803 673 732 635 q 958 711 873 711 q 1095 683 1034 711 q 1194 606 1156 655 q 1253 493 1233 557 q 1274 354 1274 429 l 1274 300 l 762 300 q 820 154 765 204 q 974 103 875 103 q 1086 127 1039 103 q 1162 192 1134 152 l 1257 113 q 974 -14 1154 -14 q 806 23 880 -14 q 688 126 732 60 q 565 23 640 60 q 399 -14 490 -14 q 142 88 243 -14 m 179 347 q 241 175 179 243 q 399 107 303 107 q 556 175 494 107 q 618 347 618 243 q 556 521 618 452 q 399 590 494 590 q 241 521 303 590 q 179 347 179 452 m 762 411 l 1139 411 q 1088 545 1135 495 q 958 595 1041 595 q 821 545 874 595 q 762 411 768 494 z "},"Ÿ":{"ha":916,"x_min":9,"x_max":907,"o":"m 9 1019 l 175 1019 l 458 572 l 741 1019 l 907 1019 l 529 432 l 529 0 l 387 0 l 387 429 l 9 1019 m 286 1098 q 275 1109 286 1098 q 264 1152 264 1120 q 286 1205 264 1183 q 339 1226 307 1226 q 394 1205 372 1226 q 415 1152 415 1184 q 394 1098 415 1119 q 339 1076 372 1076 q 286 1098 307 1076 m 523 1098 q 512 1109 523 1098 q 501 1152 501 1120 q 523 1205 501 1183 q 576 1226 545 1226 q 631 1205 609 1226 q 653 1152 653 1183 q 631 1098 653 1120 q 576 1076 608 1076 q 523 1098 545 1076 z "},"ˆ":{"ha":486,"x_min":28,"x_max":457,"o":"m 28 800 l 243 1032 l 457 800 l 334 800 l 243 890 l 151 800 l 28 800 z "},"˜":{"ha":511,"x_min":28,"x_max":482,"o":"m 28 803 q 67 948 28 900 q 170 996 106 996 q 227 984 202 996 q 266 957 252 973 q 292 926 280 941 q 317 899 303 910 q 349 888 332 888 q 393 987 393 888 l 482 987 q 443 843 482 892 q 340 794 404 794 q 283 805 307 794 q 246 832 259 817 q 222 864 233 848 q 198 891 212 880 q 165 903 184 903 q 118 803 118 903 l 28 803 z "}," ":{"ha":684,"x_min":0,"x_max":0,"o":""}," ":{"ha":1369,"x_min":0,"x_max":0,"o":""}," ":{"ha":684,"x_min":0,"x_max":0,"o":""}," ":{"ha":1369,"x_min":0,"x_max":0,"o":""}," ":{"ha":456,"x_min":0,"x_max":0,"o":""}," ":{"ha":342,"x_min":0,"x_max":0,"o":""}," ":{"ha":228,"x_min":0,"x_max":0,"o":""}," ":{"ha":228,"x_min":0,"x_max":0,"o":""}," ":{"ha":171,"x_min":0,"x_max":0,"o":""}," ":{"ha":273,"x_min":0,"x_max":0,"o":""}," ":{"ha":76,"x_min":0,"x_max":0,"o":""},"‐":{"ha":606,"x_min":56,"x_max":550,"o":"m 56 296 l 56 422 l 550 422 l 550 296 l 56 296 z "},"‑":{"ha":606,"x_min":56,"x_max":550,"o":"m 56 296 l 56 422 l 550 422 l 550 296 l 56 296 z "},"‒":{"ha":606,"x_min":56,"x_max":550,"o":"m 56 296 l 56 422 l 550 422 l 550 296 l 56 296 z "},"–":{"ha":772,"x_min":56,"x_max":715,"o":"m 56 296 l 56 422 l 715 422 l 715 296 l 56 296 z "},"—":{"ha":1111,"x_min":56,"x_max":1055,"o":"m 56 296 l 56 422 l 1055 422 l 1055 296 l 56 296 z "},"‘":{"ha":256,"x_min":56,"x_max":186,"o":"m 56 804 q 74 860 56 830 l 180 1080 l 186 1080 l 186 714 q 153 707 166 707 q 83 734 111 707 q 56 804 56 762 z "},"’":{"ha":256,"x_min":69,"x_max":200,"o":"m 69 671 l 69 1039 q 104 1044 83 1044 q 173 1017 146 1044 q 200 949 200 990 q 183 892 200 922 l 75 671 l 69 671 z "},"‚":{"ha":256,"x_min":69,"x_max":200,"o":"m 69 160 q 104 167 87 167 q 173 139 146 167 q 200 69 200 111 q 183 14 200 44 l 75 -207 l 69 -207 l 69 160 z "},"“":{"ha":504,"x_min":56,"x_max":433,"o":"m 56 804 q 74 860 56 830 l 180 1080 l 186 1080 l 186 714 q 153 707 166 707 q 83 734 111 707 q 56 804 56 762 m 302 804 q 321 860 302 830 l 428 1080 l 433 1080 l 433 714 q 400 707 414 707 q 330 734 358 707 q 302 804 302 762 z "},"”":{"ha":504,"x_min":69,"x_max":447,"o":"m 69 671 l 69 1039 q 104 1044 83 1044 q 173 1017 146 1044 q 200 949 200 990 q 183 892 200 922 l 75 671 l 69 671 m 317 671 l 317 1039 q 351 1044 331 1044 q 420 1017 393 1044 q 447 949 447 990 q 431 892 447 921 l 322 671 l 317 671 z "},"„":{"ha":521,"x_min":69,"x_max":464,"o":"m 69 160 q 104 167 87 167 q 173 139 146 167 q 200 69 200 111 q 183 14 200 44 l 75 -207 l 69 -207 l 69 160 m 334 160 q 368 167 352 167 q 437 139 410 167 q 464 69 464 111 q 447 14 464 44 l 339 -207 l 334 -207 l 334 160 z "},"•":{"ha":410,"x_min":50,"x_max":359,"o":"m 50 358 q 94 470 50 426 q 204 514 138 514 q 316 470 272 514 q 359 358 359 426 q 316 248 359 292 q 204 204 272 204 q 94 248 138 204 q 50 358 50 292 z "},"…":{"ha":936,"x_min":53,"x_max":884,"o":"m 80 14 q 66 27 80 14 q 53 82 53 41 q 80 151 53 123 q 149 178 107 178 q 217 151 191 178 q 244 82 244 125 q 217 14 244 41 q 149 -14 190 -14 q 80 14 107 -14 m 399 14 q 386 27 399 14 q 372 82 372 41 q 399 151 372 123 q 468 178 426 178 q 537 151 510 178 q 564 82 564 125 q 537 14 564 41 q 468 -14 510 -14 q 399 14 426 -14 m 719 14 q 705 27 719 14 q 692 82 692 41 q 719 151 692 123 q 787 178 746 178 q 857 151 829 178 q 884 82 884 125 q 857 14 884 41 q 787 -14 829 -14 q 719 14 746 -14 z "}," ":{"ha":273,"x_min":0,"x_max":0,"o":""},"‹":{"ha":483,"x_min":21,"x_max":463,"o":"m 21 353 l 21 358 l 297 636 l 463 636 l 182 355 l 463 75 l 297 75 l 21 353 z "},"›":{"ha":483,"x_min":21,"x_max":463,"o":"m 21 75 l 301 355 l 21 636 l 186 636 l 463 358 l 463 353 l 186 75 l 21 75 z "}," ":{"ha":342,"x_min":0,"x_max":0,"o":""},"€":{"ha":915,"x_min":49,"x_max":873,"o":"m 49 345 l 49 437 l 138 437 q 135 510 135 461 q 138 586 135 536 l 49 586 l 49 679 l 151 679 q 297 944 189 848 q 561 1039 405 1039 q 868 909 749 1039 l 783 811 q 690 886 743 859 q 561 914 638 914 q 396 852 465 914 q 298 679 328 790 l 591 679 l 591 586 l 282 586 q 279 510 279 536 q 282 437 279 482 l 591 437 l 591 345 l 298 345 q 397 169 328 231 q 564 106 466 106 q 692 134 640 106 q 789 210 745 161 l 873 111 q 564 -20 749 -20 q 297 77 406 -20 q 151 345 188 174 l 49 345 z "},"™":{"ha":1173,"x_min":31,"x_max":1121,"o":"m 31 922 l 31 1021 l 492 1021 l 492 922 l 313 922 l 313 498 l 210 498 l 210 922 l 31 922 m 572 498 l 572 1031 l 575 1031 l 846 663 l 1118 1031 l 1121 1031 l 1121 498 l 1019 498 l 1019 734 l 848 494 l 843 494 l 673 734 l 673 498 l 572 498 z "},"◼":{"ha":694,"x_min":0,"x_max":694,"o":"m 0 0 l 0 694 l 694 694 l 694 0 l 0 0 z "},"ﬁ":{"ha":847,"x_min":25,"x_max":761,"o":"m 25 581 l 25 697 l 150 697 l 150 802 q 216 984 150 913 q 390 1055 281 1055 q 513 1026 464 1055 l 473 913 q 396 935 444 935 q 316 899 346 935 q 286 806 286 864 l 286 697 l 468 697 l 468 581 l 286 581 l 286 0 l 150 0 l 150 581 l 25 581 m 583 922 q 608 986 583 960 q 672 1011 633 1011 q 735 986 709 1011 q 761 922 761 960 q 735 859 761 884 q 672 833 710 833 q 608 859 633 833 q 583 922 583 884 m 603 0 l 603 697 l 739 697 l 739 0 l 603 0 z "}}}
